<?xml version="1.0" encoding="UTF-8"?>
<svg xmlns="http://www.w3.org/2000/svg" xmlns:xlink="http://www.w3.org/1999/xlink" version="1.1" viewBox="0 0 279.01 59.63">
  <defs>
    <style>
      .cls-1 {
        fill: #137b3b;
      }

      .cls-2 {
        fill: url(#_名称未設定グラデーション_9);
      }

      .cls-3 {
        fill: url(#_名称未設定グラデーション_6);
      }

      .cls-4 {
        fill: url(#_名称未設定グラデーション_5);
      }

      .cls-5 {
        fill: url(#_名称未設定グラデーション_4);
      }

      .cls-6 {
        fill: url(#_名称未設定グラデーション_3);
      }

      .cls-7 {
        fill: url(#_名称未設定グラデーション_2);
      }

      .cls-8 {
        fill: url(#_名称未設定グラデーション_8);
      }

      .cls-9 {
        fill: url(#_名称未設定グラデーション_7);
      }

      .cls-10 {
        fill: #231815;
      }

      .cls-11 {
        fill: #fff;
      }

      .cls-12 {
        fill: #4a2d00;
      }

      .cls-13 {
        fill: url(#_名称未設定グラデーション);
      }

      .cls-14 {
        fill: url(#_名称未設定グラデーション_92);
      }

      .cls-15 {
        fill: url(#_名称未設定グラデーション_90);
      }

      .cls-16 {
        fill: url(#_名称未設定グラデーション_91);
      }

      .cls-17 {
        fill: url(#_名称未設定グラデーション_93);
      }

      .cls-18 {
        fill: url(#_名称未設定グラデーション_39);
      }

      .cls-19 {
        fill: url(#_名称未設定グラデーション_37);
      }

      .cls-20 {
        fill: url(#_名称未設定グラデーション_38);
      }

      .cls-21 {
        fill: url(#_名称未設定グラデーション_31);
      }

      .cls-22 {
        fill: url(#_名称未設定グラデーション_32);
      }

      .cls-23 {
        fill: url(#_名称未設定グラデーション_35);
      }

      .cls-24 {
        fill: url(#_名称未設定グラデーション_36);
      }

      .cls-25 {
        fill: url(#_名称未設定グラデーション_33);
      }

      .cls-26 {
        fill: url(#_名称未設定グラデーション_34);
      }

      .cls-27 {
        fill: url(#_名称未設定グラデーション_66);
      }

      .cls-28 {
        fill: url(#_名称未設定グラデーション_60);
      }

      .cls-29 {
        fill: url(#_名称未設定グラデーション_65);
      }

      .cls-30 {
        fill: url(#_名称未設定グラデーション_64);
      }

      .cls-31 {
        fill: url(#_名称未設定グラデーション_69);
      }

      .cls-32 {
        fill: url(#_名称未設定グラデーション_62);
      }

      .cls-33 {
        fill: url(#_名称未設定グラデーション_67);
      }

      .cls-34 {
        fill: url(#_名称未設定グラデーション_61);
      }

      .cls-35 {
        fill: url(#_名称未設定グラデーション_63);
      }

      .cls-36 {
        fill: url(#_名称未設定グラデーション_68);
      }

      .cls-37 {
        fill: url(#_名称未設定グラデーション_75);
      }

      .cls-38 {
        fill: url(#_名称未設定グラデーション_79);
      }

      .cls-39 {
        fill: url(#_名称未設定グラデーション_71);
      }

      .cls-40 {
        fill: url(#_名称未設定グラデーション_76);
      }

      .cls-41 {
        fill: url(#_名称未設定グラデーション_77);
      }

      .cls-42 {
        fill: url(#_名称未設定グラデーション_74);
      }

      .cls-43 {
        fill: url(#_名称未設定グラデーション_78);
      }

      .cls-44 {
        fill: url(#_名称未設定グラデーション_73);
      }

      .cls-45 {
        fill: url(#_名称未設定グラデーション_72);
      }

      .cls-46 {
        fill: url(#_名称未設定グラデーション_70);
      }

      .cls-47 {
        fill: url(#_名称未設定グラデーション_14);
      }

      .cls-48 {
        fill: url(#_名称未設定グラデーション_12);
      }

      .cls-49 {
        fill: url(#_名称未設定グラデーション_13);
      }

      .cls-50 {
        fill: url(#_名称未設定グラデーション_18);
      }

      .cls-51 {
        fill: url(#_名称未設定グラデーション_11);
      }

      .cls-52 {
        fill: url(#_名称未設定グラデーション_19);
      }

      .cls-53 {
        fill: url(#_名称未設定グラデーション_16);
      }

      .cls-54 {
        fill: url(#_名称未設定グラデーション_17);
      }

      .cls-55 {
        fill: url(#_名称未設定グラデーション_15);
      }

      .cls-56 {
        fill: url(#_名称未設定グラデーション_41);
      }

      .cls-57 {
        fill: url(#_名称未設定グラデーション_49);
      }

      .cls-58 {
        fill: url(#_名称未設定グラデーション_42);
      }

      .cls-59 {
        fill: url(#_名称未設定グラデーション_43);
      }

      .cls-60 {
        fill: url(#_名称未設定グラデーション_44);
      }

      .cls-61 {
        fill: url(#_名称未設定グラデーション_45);
      }

      .cls-62 {
        fill: url(#_名称未設定グラデーション_40);
      }

      .cls-63 {
        fill: url(#_名称未設定グラデーション_46);
      }

      .cls-64 {
        fill: url(#_名称未設定グラデーション_47);
      }

      .cls-65 {
        fill: url(#_名称未設定グラデーション_48);
      }

      .cls-66 {
        fill: url(#_名称未設定グラデーション_30);
      }

      .cls-67 {
        fill: url(#_名称未設定グラデーション_23);
      }

      .cls-68 {
        fill: url(#_名称未設定グラデーション_24);
      }

      .cls-69 {
        fill: url(#_名称未設定グラデーション_25);
      }

      .cls-70 {
        fill: url(#_名称未設定グラデーション_27);
      }

      .cls-71 {
        fill: url(#_名称未設定グラデーション_20);
      }

      .cls-72 {
        fill: url(#_名称未設定グラデーション_21);
      }

      .cls-73 {
        fill: url(#_名称未設定グラデーション_28);
      }

      .cls-74 {
        fill: url(#_名称未設定グラデーション_29);
      }

      .cls-75 {
        fill: url(#_名称未設定グラデーション_22);
      }

      .cls-76 {
        fill: url(#_名称未設定グラデーション_26);
      }

      .cls-77 {
        fill: url(#_名称未設定グラデーション_10);
      }

      .cls-78 {
        fill: url(#_名称未設定グラデーション_56);
      }

      .cls-79 {
        fill: url(#_名称未設定グラデーション_57);
      }

      .cls-80 {
        fill: url(#_名称未設定グラデーション_54);
      }

      .cls-81 {
        fill: url(#_名称未設定グラデーション_55);
      }

      .cls-82 {
        fill: url(#_名称未設定グラデーション_58);
      }

      .cls-83 {
        fill: url(#_名称未設定グラデーション_59);
      }

      .cls-84 {
        fill: url(#_名称未設定グラデーション_52);
      }

      .cls-85 {
        fill: url(#_名称未設定グラデーション_53);
      }

      .cls-86 {
        fill: url(#_名称未設定グラデーション_50);
      }

      .cls-87 {
        fill: url(#_名称未設定グラデーション_51);
      }

      .cls-88 {
        fill: url(#_名称未設定グラデーション_84);
      }

      .cls-89 {
        fill: url(#_名称未設定グラデーション_85);
      }

      .cls-90 {
        fill: url(#_名称未設定グラデーション_86);
      }

      .cls-91 {
        fill: url(#_名称未設定グラデーション_87);
      }

      .cls-92 {
        fill: url(#_名称未設定グラデーション_88);
      }

      .cls-93 {
        fill: url(#_名称未設定グラデーション_89);
      }

      .cls-94 {
        fill: url(#_名称未設定グラデーション_80);
      }

      .cls-95 {
        fill: url(#_名称未設定グラデーション_81);
      }

      .cls-96 {
        fill: url(#_名称未設定グラデーション_82);
      }

      .cls-97 {
        fill: url(#_名称未設定グラデーション_83);
      }
    </style>
    <linearGradient id="_名称未設定グラデーション" data-name="名称未設定グラデーション" x1="95.64" y1="36.07" x2="251.94" y2="36.07" gradientTransform="translate(0 79.85) scale(1 -1)" gradientUnits="userSpaceOnUse">
      <stop offset="0" stop-color="#009233"/>
      <stop offset="1" stop-color="#005016"/>
    </linearGradient>
    <linearGradient id="_名称未設定グラデーション_2" data-name="名称未設定グラデーション 2" x1="95.64" y1="36.05" x2="251.94" y2="36.05" gradientTransform="translate(0 79.85) scale(1 -1)" gradientUnits="userSpaceOnUse">
      <stop offset="0" stop-color="#009233"/>
      <stop offset="1" stop-color="#005016"/>
    </linearGradient>
    <linearGradient id="_名称未設定グラデーション_3" data-name="名称未設定グラデーション 3" x1="95.64" y1="36.05" x2="251.94" y2="36.05" gradientTransform="translate(0 79.85) scale(1 -1)" gradientUnits="userSpaceOnUse">
      <stop offset="0" stop-color="#009233"/>
      <stop offset="1" stop-color="#005016"/>
    </linearGradient>
    <linearGradient id="_名称未設定グラデーション_4" data-name="名称未設定グラデーション 4" x1="95.64" y1="36.05" x2="251.94" y2="36.05" gradientTransform="translate(0 79.85) scale(1 -1)" gradientUnits="userSpaceOnUse">
      <stop offset="0" stop-color="#009233"/>
      <stop offset="1" stop-color="#005016"/>
    </linearGradient>
    <linearGradient id="_名称未設定グラデーション_5" data-name="名称未設定グラデーション 5" x1="95.64" y1="36.06" x2="251.94" y2="36.06" gradientTransform="translate(0 79.85) scale(1 -1)" gradientUnits="userSpaceOnUse">
      <stop offset="0" stop-color="#009233"/>
      <stop offset="1" stop-color="#005016"/>
    </linearGradient>
    <linearGradient id="_名称未設定グラデーション_6" data-name="名称未設定グラデーション 6" x1="95.64" y1="36.07" x2="251.94" y2="36.07" gradientTransform="translate(0 79.85) scale(1 -1)" gradientUnits="userSpaceOnUse">
      <stop offset="0" stop-color="#009233"/>
      <stop offset="1" stop-color="#005016"/>
    </linearGradient>
    <linearGradient id="_名称未設定グラデーション_7" data-name="名称未設定グラデーション 7" x1="95.64" y1="36.06" x2="251.94" y2="36.06" gradientTransform="translate(0 79.85) scale(1 -1)" gradientUnits="userSpaceOnUse">
      <stop offset="0" stop-color="#009233"/>
      <stop offset="1" stop-color="#005016"/>
    </linearGradient>
    <linearGradient id="_名称未設定グラデーション_8" data-name="名称未設定グラデーション 8" x1="95.64" y1="36.06" x2="251.94" y2="36.06" gradientTransform="translate(0 79.85) scale(1 -1)" gradientUnits="userSpaceOnUse">
      <stop offset="0" stop-color="#009233"/>
      <stop offset="1" stop-color="#005016"/>
    </linearGradient>
    <linearGradient id="_名称未設定グラデーション_9" data-name="名称未設定グラデーション 9" x1="95.64" y1="36.06" x2="251.94" y2="36.06" gradientTransform="translate(0 79.85) scale(1 -1)" gradientUnits="userSpaceOnUse">
      <stop offset="0" stop-color="#009233"/>
      <stop offset="1" stop-color="#005016"/>
    </linearGradient>
    <linearGradient id="_名称未設定グラデーション_10" data-name="名称未設定グラデーション 10" x1="95.64" y1="36.06" x2="251.94" y2="36.06" gradientTransform="translate(0 79.85) scale(1 -1)" gradientUnits="userSpaceOnUse">
      <stop offset="0" stop-color="#009233"/>
      <stop offset="1" stop-color="#005016"/>
    </linearGradient>
    <linearGradient id="_名称未設定グラデーション_11" data-name="名称未設定グラデーション 11" x1="95.64" y1="36.06" x2="251.94" y2="36.06" gradientTransform="translate(0 79.85) scale(1 -1)" gradientUnits="userSpaceOnUse">
      <stop offset="0" stop-color="#009233"/>
      <stop offset="1" stop-color="#005016"/>
    </linearGradient>
    <linearGradient id="_名称未設定グラデーション_12" data-name="名称未設定グラデーション 12" x1="95.64" y1="36.07" x2="251.94" y2="36.07" gradientTransform="translate(0 79.85) scale(1 -1)" gradientUnits="userSpaceOnUse">
      <stop offset="0" stop-color="#009233"/>
      <stop offset="1" stop-color="#005016"/>
    </linearGradient>
    <linearGradient id="_名称未設定グラデーション_13" data-name="名称未設定グラデーション 13" x1="95.64" y1="36.06" x2="251.94" y2="36.06" gradientTransform="translate(0 79.85) scale(1 -1)" gradientUnits="userSpaceOnUse">
      <stop offset="0" stop-color="#009233"/>
      <stop offset="1" stop-color="#005016"/>
    </linearGradient>
    <linearGradient id="_名称未設定グラデーション_14" data-name="名称未設定グラデーション 14" x1="95.64" y1="36.07" x2="251.94" y2="36.07" gradientTransform="translate(0 79.85) scale(1 -1)" gradientUnits="userSpaceOnUse">
      <stop offset="0" stop-color="#009233"/>
      <stop offset="1" stop-color="#005016"/>
    </linearGradient>
    <linearGradient id="_名称未設定グラデーション_15" data-name="名称未設定グラデーション 15" x1="95.64" y1="36.06" x2="251.94" y2="36.06" gradientTransform="translate(0 79.85) scale(1 -1)" gradientUnits="userSpaceOnUse">
      <stop offset="0" stop-color="#009233"/>
      <stop offset="1" stop-color="#005016"/>
    </linearGradient>
    <linearGradient id="_名称未設定グラデーション_16" data-name="名称未設定グラデーション 16" x1="95.64" y1="36.06" x2="251.94" y2="36.06" gradientTransform="translate(0 79.85) scale(1 -1)" gradientUnits="userSpaceOnUse">
      <stop offset="0" stop-color="#009233"/>
      <stop offset="1" stop-color="#005016"/>
    </linearGradient>
    <linearGradient id="_名称未設定グラデーション_17" data-name="名称未設定グラデーション 17" x1="95.64" y1="36.06" x2="251.94" y2="36.06" gradientTransform="translate(0 79.85) scale(1 -1)" gradientUnits="userSpaceOnUse">
      <stop offset="0" stop-color="#009233"/>
      <stop offset="1" stop-color="#005016"/>
    </linearGradient>
    <linearGradient id="_名称未設定グラデーション_18" data-name="名称未設定グラデーション 18" x1="95.64" y1="36.06" x2="251.94" y2="36.06" gradientTransform="translate(0 79.85) scale(1 -1)" gradientUnits="userSpaceOnUse">
      <stop offset="0" stop-color="#009233"/>
      <stop offset="1" stop-color="#005016"/>
    </linearGradient>
    <linearGradient id="_名称未設定グラデーション_19" data-name="名称未設定グラデーション 19" x1="95.64" y1="36.06" x2="251.94" y2="36.06" gradientTransform="translate(0 79.85) scale(1 -1)" gradientUnits="userSpaceOnUse">
      <stop offset="0" stop-color="#009233"/>
      <stop offset="1" stop-color="#005016"/>
    </linearGradient>
    <linearGradient id="_名称未設定グラデーション_20" data-name="名称未設定グラデーション 20" x1="95.64" y1="36.07" x2="251.94" y2="36.07" gradientTransform="translate(0 79.85) scale(1 -1)" gradientUnits="userSpaceOnUse">
      <stop offset="0" stop-color="#009233"/>
      <stop offset="1" stop-color="#005016"/>
    </linearGradient>
    <linearGradient id="_名称未設定グラデーション_21" data-name="名称未設定グラデーション 21" x1="95.64" y1="36.06" x2="251.94" y2="36.06" gradientTransform="translate(0 79.85) scale(1 -1)" gradientUnits="userSpaceOnUse">
      <stop offset="0" stop-color="#009233"/>
      <stop offset="1" stop-color="#005016"/>
    </linearGradient>
    <linearGradient id="_名称未設定グラデーション_22" data-name="名称未設定グラデーション 22" x1="95.64" y1="36.07" x2="251.94" y2="36.07" gradientTransform="translate(0 79.85) scale(1 -1)" gradientUnits="userSpaceOnUse">
      <stop offset="0" stop-color="#009233"/>
      <stop offset="1" stop-color="#005016"/>
    </linearGradient>
    <linearGradient id="_名称未設定グラデーション_23" data-name="名称未設定グラデーション 23" x1="95.64" y1="36.06" x2="251.94" y2="36.06" gradientTransform="translate(0 79.85) scale(1 -1)" gradientUnits="userSpaceOnUse">
      <stop offset="0" stop-color="#009233"/>
      <stop offset="1" stop-color="#005016"/>
    </linearGradient>
    <linearGradient id="_名称未設定グラデーション_24" data-name="名称未設定グラデーション 24" x1="95.64" y1="36.06" x2="251.94" y2="36.06" gradientTransform="translate(0 79.85) scale(1 -1)" gradientUnits="userSpaceOnUse">
      <stop offset="0" stop-color="#009233"/>
      <stop offset="1" stop-color="#005016"/>
    </linearGradient>
    <linearGradient id="_名称未設定グラデーション_25" data-name="名称未設定グラデーション 25" x1="95.64" y1="36.06" x2="251.94" y2="36.06" gradientTransform="translate(0 79.85) scale(1 -1)" gradientUnits="userSpaceOnUse">
      <stop offset="0" stop-color="#009233"/>
      <stop offset="1" stop-color="#005016"/>
    </linearGradient>
    <linearGradient id="_名称未設定グラデーション_26" data-name="名称未設定グラデーション 26" x1="95.64" y1="36.06" x2="251.94" y2="36.06" gradientTransform="translate(0 79.85) scale(1 -1)" gradientUnits="userSpaceOnUse">
      <stop offset="0" stop-color="#009233"/>
      <stop offset="1" stop-color="#005016"/>
    </linearGradient>
    <linearGradient id="_名称未設定グラデーション_27" data-name="名称未設定グラデーション 27" x1="95.64" y1="36.06" x2="251.94" y2="36.06" gradientTransform="translate(0 79.85) scale(1 -1)" gradientUnits="userSpaceOnUse">
      <stop offset="0" stop-color="#009233"/>
      <stop offset="1" stop-color="#005016"/>
    </linearGradient>
    <linearGradient id="_名称未設定グラデーション_28" data-name="名称未設定グラデーション 28" x1="95.64" y1="36.07" x2="251.94" y2="36.07" gradientTransform="translate(0 79.85) scale(1 -1)" gradientUnits="userSpaceOnUse">
      <stop offset="0" stop-color="#009233"/>
      <stop offset="1" stop-color="#005016"/>
    </linearGradient>
    <linearGradient id="_名称未設定グラデーション_29" data-name="名称未設定グラデーション 29" x1="95.64" y1="36.06" x2="251.94" y2="36.06" gradientTransform="translate(0 79.85) scale(1 -1)" gradientUnits="userSpaceOnUse">
      <stop offset="0" stop-color="#009233"/>
      <stop offset="1" stop-color="#005016"/>
    </linearGradient>
    <linearGradient id="_名称未設定グラデーション_30" data-name="名称未設定グラデーション 30" x1="95.64" y1="36.07" x2="251.94" y2="36.07" gradientTransform="translate(0 79.85) scale(1 -1)" gradientUnits="userSpaceOnUse">
      <stop offset="0" stop-color="#009233"/>
      <stop offset="1" stop-color="#005016"/>
    </linearGradient>
    <linearGradient id="_名称未設定グラデーション_31" data-name="名称未設定グラデーション 31" x1="95.64" y1="36.05" x2="251.94" y2="36.05" gradientTransform="translate(0 79.85) scale(1 -1)" gradientUnits="userSpaceOnUse">
      <stop offset="0" stop-color="#009233"/>
      <stop offset="1" stop-color="#005016"/>
    </linearGradient>
    <linearGradient id="_名称未設定グラデーション_32" data-name="名称未設定グラデーション 32" x1="95.64" y1="36.05" x2="251.94" y2="36.05" gradientTransform="translate(0 79.85) scale(1 -1)" gradientUnits="userSpaceOnUse">
      <stop offset="0" stop-color="#009233"/>
      <stop offset="1" stop-color="#005016"/>
    </linearGradient>
    <linearGradient id="_名称未設定グラデーション_33" data-name="名称未設定グラデーション 33" x1="95.64" y1="36.05" x2="251.94" y2="36.05" gradientTransform="translate(0 79.85) scale(1 -1)" gradientUnits="userSpaceOnUse">
      <stop offset="0" stop-color="#009233"/>
      <stop offset="1" stop-color="#005016"/>
    </linearGradient>
    <linearGradient id="_名称未設定グラデーション_34" data-name="名称未設定グラデーション 34" x1="95.64" y1="36.06" x2="251.94" y2="36.06" gradientTransform="translate(0 79.85) scale(1 -1)" gradientUnits="userSpaceOnUse">
      <stop offset="0" stop-color="#009233"/>
      <stop offset="1" stop-color="#005016"/>
    </linearGradient>
    <linearGradient id="_名称未設定グラデーション_35" data-name="名称未設定グラデーション 35" x1="95.64" y1="36.07" x2="251.94" y2="36.07" gradientTransform="translate(0 79.85) scale(1 -1)" gradientUnits="userSpaceOnUse">
      <stop offset="0" stop-color="#009233"/>
      <stop offset="1" stop-color="#005016"/>
    </linearGradient>
    <linearGradient id="_名称未設定グラデーション_36" data-name="名称未設定グラデーション 36" x1="95.64" y1="36.06" x2="251.94" y2="36.06" gradientTransform="translate(0 79.85) scale(1 -1)" gradientUnits="userSpaceOnUse">
      <stop offset="0" stop-color="#009233"/>
      <stop offset="1" stop-color="#005016"/>
    </linearGradient>
    <linearGradient id="_名称未設定グラデーション_37" data-name="名称未設定グラデーション 37" x1="95.64" y1="36.06" x2="251.94" y2="36.06" gradientTransform="translate(0 79.85) scale(1 -1)" gradientUnits="userSpaceOnUse">
      <stop offset="0" stop-color="#009233"/>
      <stop offset="1" stop-color="#005016"/>
    </linearGradient>
    <linearGradient id="_名称未設定グラデーション_38" data-name="名称未設定グラデーション 38" x1="95.64" y1="36.06" x2="251.94" y2="36.06" gradientTransform="translate(0 79.85) scale(1 -1)" gradientUnits="userSpaceOnUse">
      <stop offset="0" stop-color="#009233"/>
      <stop offset="1" stop-color="#005016"/>
    </linearGradient>
    <linearGradient id="_名称未設定グラデーション_39" data-name="名称未設定グラデーション 39" x1="95.64" y1="36.06" x2="251.94" y2="36.06" gradientTransform="translate(0 79.85) scale(1 -1)" gradientUnits="userSpaceOnUse">
      <stop offset="0" stop-color="#009233"/>
      <stop offset="1" stop-color="#005016"/>
    </linearGradient>
    <linearGradient id="_名称未設定グラデーション_40" data-name="名称未設定グラデーション 40" x1="95.64" y1="36.06" x2="251.94" y2="36.06" gradientTransform="translate(0 79.85) scale(1 -1)" gradientUnits="userSpaceOnUse">
      <stop offset="0" stop-color="#009233"/>
      <stop offset="1" stop-color="#005016"/>
    </linearGradient>
    <linearGradient id="_名称未設定グラデーション_41" data-name="名称未設定グラデーション 41" x1="95.64" y1="36.07" x2="251.94" y2="36.07" gradientTransform="translate(0 79.85) scale(1 -1)" gradientUnits="userSpaceOnUse">
      <stop offset="0" stop-color="#009233"/>
      <stop offset="1" stop-color="#005016"/>
    </linearGradient>
    <linearGradient id="_名称未設定グラデーション_42" data-name="名称未設定グラデーション 42" x1="95.64" y1="36.06" x2="251.94" y2="36.06" gradientTransform="translate(0 79.85) scale(1 -1)" gradientUnits="userSpaceOnUse">
      <stop offset="0" stop-color="#009233"/>
      <stop offset="1" stop-color="#005016"/>
    </linearGradient>
    <linearGradient id="_名称未設定グラデーション_43" data-name="名称未設定グラデーション 43" x1="95.64" y1="36.07" x2="251.94" y2="36.07" gradientTransform="translate(0 79.85) scale(1 -1)" gradientUnits="userSpaceOnUse">
      <stop offset="0" stop-color="#009233"/>
      <stop offset="1" stop-color="#005016"/>
    </linearGradient>
    <linearGradient id="_名称未設定グラデーション_44" data-name="名称未設定グラデーション 44" x1="95.64" y1="36.06" x2="251.94" y2="36.06" gradientTransform="translate(0 79.85) scale(1 -1)" gradientUnits="userSpaceOnUse">
      <stop offset="0" stop-color="#009233"/>
      <stop offset="1" stop-color="#005016"/>
    </linearGradient>
    <linearGradient id="_名称未設定グラデーション_45" data-name="名称未設定グラデーション 45" x1="95.64" y1="36.06" x2="251.94" y2="36.06" gradientTransform="translate(0 79.85) scale(1 -1)" gradientUnits="userSpaceOnUse">
      <stop offset="0" stop-color="#009233"/>
      <stop offset="1" stop-color="#005016"/>
    </linearGradient>
    <linearGradient id="_名称未設定グラデーション_46" data-name="名称未設定グラデーション 46" x1="95.64" y1="36.06" x2="251.94" y2="36.06" gradientTransform="translate(0 79.85) scale(1 -1)" gradientUnits="userSpaceOnUse">
      <stop offset="0" stop-color="#009233"/>
      <stop offset="1" stop-color="#005016"/>
    </linearGradient>
    <linearGradient id="_名称未設定グラデーション_47" data-name="名称未設定グラデーション 47" x1="95.64" y1="36.06" x2="251.94" y2="36.06" gradientTransform="translate(0 79.85) scale(1 -1)" gradientUnits="userSpaceOnUse">
      <stop offset="0" stop-color="#009233"/>
      <stop offset="1" stop-color="#005016"/>
    </linearGradient>
    <linearGradient id="_名称未設定グラデーション_48" data-name="名称未設定グラデーション 48" x1="95.64" y1="36.06" x2="251.94" y2="36.06" gradientTransform="translate(0 79.85) scale(1 -1)" gradientUnits="userSpaceOnUse">
      <stop offset="0" stop-color="#009233"/>
      <stop offset="1" stop-color="#005016"/>
    </linearGradient>
    <linearGradient id="_名称未設定グラデーション_49" data-name="名称未設定グラデーション 49" x1="95.64" y1="36.07" x2="251.94" y2="36.07" gradientTransform="translate(0 79.85) scale(1 -1)" gradientUnits="userSpaceOnUse">
      <stop offset="0" stop-color="#009233"/>
      <stop offset="1" stop-color="#005016"/>
    </linearGradient>
    <linearGradient id="_名称未設定グラデーション_50" data-name="名称未設定グラデーション 50" x1="95.64" y1="36.06" x2="251.94" y2="36.06" gradientTransform="translate(0 79.85) scale(1 -1)" gradientUnits="userSpaceOnUse">
      <stop offset="0" stop-color="#009233"/>
      <stop offset="1" stop-color="#005016"/>
    </linearGradient>
    <linearGradient id="_名称未設定グラデーション_51" data-name="名称未設定グラデーション 51" x1="95.64" y1="36.07" x2="251.94" y2="36.07" gradientTransform="translate(0 79.85) scale(1 -1)" gradientUnits="userSpaceOnUse">
      <stop offset="0" stop-color="#009233"/>
      <stop offset="1" stop-color="#005016"/>
    </linearGradient>
    <linearGradient id="_名称未設定グラデーション_52" data-name="名称未設定グラデーション 52" x1="95.64" y1="36.06" x2="251.94" y2="36.06" gradientTransform="translate(0 79.85) scale(1 -1)" gradientUnits="userSpaceOnUse">
      <stop offset="0" stop-color="#009233"/>
      <stop offset="1" stop-color="#005016"/>
    </linearGradient>
    <linearGradient id="_名称未設定グラデーション_53" data-name="名称未設定グラデーション 53" x1="95.64" y1="36.06" x2="251.94" y2="36.06" gradientTransform="translate(0 79.85) scale(1 -1)" gradientUnits="userSpaceOnUse">
      <stop offset="0" stop-color="#009233"/>
      <stop offset="1" stop-color="#005016"/>
    </linearGradient>
    <linearGradient id="_名称未設定グラデーション_54" data-name="名称未設定グラデーション 54" x1="95.64" y1="36.06" x2="251.94" y2="36.06" gradientTransform="translate(0 79.85) scale(1 -1)" gradientUnits="userSpaceOnUse">
      <stop offset="0" stop-color="#009233"/>
      <stop offset="1" stop-color="#005016"/>
    </linearGradient>
    <linearGradient id="_名称未設定グラデーション_55" data-name="名称未設定グラデーション 55" x1="95.64" y1="36.06" x2="251.94" y2="36.06" gradientTransform="translate(0 79.85) scale(1 -1)" gradientUnits="userSpaceOnUse">
      <stop offset="0" stop-color="#009233"/>
      <stop offset="1" stop-color="#005016"/>
    </linearGradient>
    <linearGradient id="_名称未設定グラデーション_56" data-name="名称未設定グラデーション 56" x1="95.64" y1="36.06" x2="251.94" y2="36.06" gradientTransform="translate(0 79.85) scale(1 -1)" gradientUnits="userSpaceOnUse">
      <stop offset="0" stop-color="#009233"/>
      <stop offset="1" stop-color="#005016"/>
    </linearGradient>
    <linearGradient id="_名称未設定グラデーション_57" data-name="名称未設定グラデーション 57" x1="95.64" y1="36.07" x2="251.94" y2="36.07" gradientTransform="translate(0 79.85) scale(1 -1)" gradientUnits="userSpaceOnUse">
      <stop offset="0" stop-color="#009233"/>
      <stop offset="1" stop-color="#005016"/>
    </linearGradient>
    <linearGradient id="_名称未設定グラデーション_58" data-name="名称未設定グラデーション 58" x1="95.64" y1="36.06" x2="251.94" y2="36.06" gradientTransform="translate(0 79.85) scale(1 -1)" gradientUnits="userSpaceOnUse">
      <stop offset="0" stop-color="#009233"/>
      <stop offset="1" stop-color="#005016"/>
    </linearGradient>
    <linearGradient id="_名称未設定グラデーション_59" data-name="名称未設定グラデーション 59" x1="95.64" y1="36.07" x2="251.94" y2="36.07" gradientTransform="translate(0 79.85) scale(1 -1)" gradientUnits="userSpaceOnUse">
      <stop offset="0" stop-color="#009233"/>
      <stop offset="1" stop-color="#005016"/>
    </linearGradient>
    <linearGradient id="_名称未設定グラデーション_60" data-name="名称未設定グラデーション 60" x1="95.64" y1="36.05" x2="251.94" y2="36.05" gradientTransform="translate(0 79.85) scale(1 -1)" gradientUnits="userSpaceOnUse">
      <stop offset="0" stop-color="#009233"/>
      <stop offset="1" stop-color="#005016"/>
    </linearGradient>
    <linearGradient id="_名称未設定グラデーション_61" data-name="名称未設定グラデーション 61" x1="95.64" y1="36.05" x2="251.94" y2="36.05" gradientTransform="translate(0 79.85) scale(1 -1)" gradientUnits="userSpaceOnUse">
      <stop offset="0" stop-color="#009233"/>
      <stop offset="1" stop-color="#005016"/>
    </linearGradient>
    <linearGradient id="_名称未設定グラデーション_62" data-name="名称未設定グラデーション 62" x1="95.64" y1="36.05" x2="251.94" y2="36.05" gradientTransform="translate(0 79.85) scale(1 -1)" gradientUnits="userSpaceOnUse">
      <stop offset="0" stop-color="#009233"/>
      <stop offset="1" stop-color="#005016"/>
    </linearGradient>
    <linearGradient id="_名称未設定グラデーション_63" data-name="名称未設定グラデーション 63" x1="95.64" y1="36.06" x2="251.94" y2="36.06" gradientTransform="translate(0 79.85) scale(1 -1)" gradientUnits="userSpaceOnUse">
      <stop offset="0" stop-color="#009233"/>
      <stop offset="1" stop-color="#005016"/>
    </linearGradient>
    <linearGradient id="_名称未設定グラデーション_64" data-name="名称未設定グラデーション 64" x1="95.64" y1="36.07" x2="251.94" y2="36.07" gradientTransform="translate(0 79.85) scale(1 -1)" gradientUnits="userSpaceOnUse">
      <stop offset="0" stop-color="#009233"/>
      <stop offset="1" stop-color="#005016"/>
    </linearGradient>
    <linearGradient id="_名称未設定グラデーション_65" data-name="名称未設定グラデーション 65" x1="95.64" y1="36.06" x2="251.94" y2="36.06" gradientTransform="translate(0 79.85) scale(1 -1)" gradientUnits="userSpaceOnUse">
      <stop offset="0" stop-color="#009233"/>
      <stop offset="1" stop-color="#005016"/>
    </linearGradient>
    <linearGradient id="_名称未設定グラデーション_66" data-name="名称未設定グラデーション 66" x1="95.64" y1="36.06" x2="251.94" y2="36.06" gradientTransform="translate(0 79.85) scale(1 -1)" gradientUnits="userSpaceOnUse">
      <stop offset="0" stop-color="#009233"/>
      <stop offset="1" stop-color="#005016"/>
    </linearGradient>
    <linearGradient id="_名称未設定グラデーション_67" data-name="名称未設定グラデーション 67" x1="95.64" y1="36.06" x2="251.94" y2="36.06" gradientTransform="translate(0 79.85) scale(1 -1)" gradientUnits="userSpaceOnUse">
      <stop offset="0" stop-color="#009233"/>
      <stop offset="1" stop-color="#005016"/>
    </linearGradient>
    <linearGradient id="_名称未設定グラデーション_68" data-name="名称未設定グラデーション 68" x1="95.64" y1="36.06" x2="251.94" y2="36.06" gradientTransform="translate(0 79.85) scale(1 -1)" gradientUnits="userSpaceOnUse">
      <stop offset="0" stop-color="#009233"/>
      <stop offset="1" stop-color="#005016"/>
    </linearGradient>
    <linearGradient id="_名称未設定グラデーション_69" data-name="名称未設定グラデーション 69" x1="95.64" y1="36.06" x2="251.94" y2="36.06" gradientTransform="translate(0 79.85) scale(1 -1)" gradientUnits="userSpaceOnUse">
      <stop offset="0" stop-color="#009233"/>
      <stop offset="1" stop-color="#005016"/>
    </linearGradient>
    <linearGradient id="_名称未設定グラデーション_70" data-name="名称未設定グラデーション 70" x1="95.64" y1="36.07" x2="251.94" y2="36.07" gradientTransform="translate(0 79.85) scale(1 -1)" gradientUnits="userSpaceOnUse">
      <stop offset="0" stop-color="#009233"/>
      <stop offset="1" stop-color="#005016"/>
    </linearGradient>
    <linearGradient id="_名称未設定グラデーション_71" data-name="名称未設定グラデーション 71" x1="95.64" y1="36.06" x2="251.94" y2="36.06" gradientTransform="translate(0 79.85) scale(1 -1)" gradientUnits="userSpaceOnUse">
      <stop offset="0" stop-color="#009233"/>
      <stop offset="1" stop-color="#005016"/>
    </linearGradient>
    <linearGradient id="_名称未設定グラデーション_72" data-name="名称未設定グラデーション 72" x1="95.64" y1="36.07" x2="251.94" y2="36.07" gradientTransform="translate(0 79.85) scale(1 -1)" gradientUnits="userSpaceOnUse">
      <stop offset="0" stop-color="#009233"/>
      <stop offset="1" stop-color="#005016"/>
    </linearGradient>
    <linearGradient id="_名称未設定グラデーション_73" data-name="名称未設定グラデーション 73" x1="95.64" y1="36.06" x2="251.94" y2="36.06" gradientTransform="translate(0 79.85) scale(1 -1)" gradientUnits="userSpaceOnUse">
      <stop offset="0" stop-color="#009233"/>
      <stop offset="1" stop-color="#005016"/>
    </linearGradient>
    <linearGradient id="_名称未設定グラデーション_74" data-name="名称未設定グラデーション 74" x1="95.64" y1="36.06" x2="251.94" y2="36.06" gradientTransform="translate(0 79.85) scale(1 -1)" gradientUnits="userSpaceOnUse">
      <stop offset="0" stop-color="#009233"/>
      <stop offset="1" stop-color="#005016"/>
    </linearGradient>
    <linearGradient id="_名称未設定グラデーション_75" data-name="名称未設定グラデーション 75" x1="95.64" y1="36.06" x2="251.94" y2="36.06" gradientTransform="translate(0 79.85) scale(1 -1)" gradientUnits="userSpaceOnUse">
      <stop offset="0" stop-color="#009233"/>
      <stop offset="1" stop-color="#005016"/>
    </linearGradient>
    <linearGradient id="_名称未設定グラデーション_76" data-name="名称未設定グラデーション 76" x1="95.64" y1="36.06" x2="251.94" y2="36.06" gradientTransform="translate(0 79.85) scale(1 -1)" gradientUnits="userSpaceOnUse">
      <stop offset="0" stop-color="#009233"/>
      <stop offset="1" stop-color="#005016"/>
    </linearGradient>
    <linearGradient id="_名称未設定グラデーション_77" data-name="名称未設定グラデーション 77" x1="95.64" y1="36.06" x2="251.94" y2="36.06" gradientTransform="translate(0 79.85) scale(1 -1)" gradientUnits="userSpaceOnUse">
      <stop offset="0" stop-color="#009233"/>
      <stop offset="1" stop-color="#005016"/>
    </linearGradient>
    <linearGradient id="_名称未設定グラデーション_78" data-name="名称未設定グラデーション 78" x1="95.64" y1="36.07" x2="251.94" y2="36.07" gradientTransform="translate(0 79.85) scale(1 -1)" gradientUnits="userSpaceOnUse">
      <stop offset="0" stop-color="#009233"/>
      <stop offset="1" stop-color="#005016"/>
    </linearGradient>
    <linearGradient id="_名称未設定グラデーション_79" data-name="名称未設定グラデーション 79" x1="95.64" y1="36.06" x2="251.94" y2="36.06" gradientTransform="translate(0 79.85) scale(1 -1)" gradientUnits="userSpaceOnUse">
      <stop offset="0" stop-color="#009233"/>
      <stop offset="1" stop-color="#005016"/>
    </linearGradient>
    <linearGradient id="_名称未設定グラデーション_80" data-name="名称未設定グラデーション 80" x1="95.64" y1="36.07" x2="251.94" y2="36.07" gradientTransform="translate(0 79.85) scale(1 -1)" gradientUnits="userSpaceOnUse">
      <stop offset="0" stop-color="#009233"/>
      <stop offset="1" stop-color="#005016"/>
    </linearGradient>
    <linearGradient id="_名称未設定グラデーション_81" data-name="名称未設定グラデーション 81" x1="95.64" y1="36.06" x2="251.94" y2="36.06" gradientTransform="translate(0 79.85) scale(1 -1)" gradientUnits="userSpaceOnUse">
      <stop offset="0" stop-color="#009233"/>
      <stop offset="1" stop-color="#005016"/>
    </linearGradient>
    <linearGradient id="_名称未設定グラデーション_82" data-name="名称未設定グラデーション 82" x1="95.64" y1="36.06" x2="251.94" y2="36.06" gradientTransform="translate(0 79.85) scale(1 -1)" gradientUnits="userSpaceOnUse">
      <stop offset="0" stop-color="#009233"/>
      <stop offset="1" stop-color="#005016"/>
    </linearGradient>
    <linearGradient id="_名称未設定グラデーション_83" data-name="名称未設定グラデーション 83" x1="95.64" y1="36.06" x2="251.94" y2="36.06" gradientTransform="translate(0 79.85) scale(1 -1)" gradientUnits="userSpaceOnUse">
      <stop offset="0" stop-color="#009233"/>
      <stop offset="1" stop-color="#005016"/>
    </linearGradient>
    <linearGradient id="_名称未設定グラデーション_84" data-name="名称未設定グラデーション 84" x1="95.64" y1="36.06" x2="251.94" y2="36.06" gradientTransform="translate(0 79.85) scale(1 -1)" gradientUnits="userSpaceOnUse">
      <stop offset="0" stop-color="#009233"/>
      <stop offset="1" stop-color="#005016"/>
    </linearGradient>
    <linearGradient id="_名称未設定グラデーション_85" data-name="名称未設定グラデーション 85" x1="95.64" y1="36.06" x2="251.94" y2="36.06" gradientTransform="translate(0 79.85) scale(1 -1)" gradientUnits="userSpaceOnUse">
      <stop offset="0" stop-color="#009233"/>
      <stop offset="1" stop-color="#005016"/>
    </linearGradient>
    <linearGradient id="_名称未設定グラデーション_86" data-name="名称未設定グラデーション 86" x1="95.64" y1="36.07" x2="251.94" y2="36.07" gradientTransform="translate(0 79.85) scale(1 -1)" gradientUnits="userSpaceOnUse">
      <stop offset="0" stop-color="#009233"/>
      <stop offset="1" stop-color="#005016"/>
    </linearGradient>
    <linearGradient id="_名称未設定グラデーション_87" data-name="名称未設定グラデーション 87" x1="95.64" y1="36.06" x2="251.94" y2="36.06" gradientTransform="translate(0 79.85) scale(1 -1)" gradientUnits="userSpaceOnUse">
      <stop offset="0" stop-color="#009233"/>
      <stop offset="1" stop-color="#005016"/>
    </linearGradient>
    <linearGradient id="_名称未設定グラデーション_88" data-name="名称未設定グラデーション 88" x1="95.64" y1="36.05" x2="251.94" y2="36.05" gradientTransform="translate(0 79.85) scale(1 -1)" gradientUnits="userSpaceOnUse">
      <stop offset="0" stop-color="#009233"/>
      <stop offset="1" stop-color="#005016"/>
    </linearGradient>
    <linearGradient id="_名称未設定グラデーション_89" data-name="名称未設定グラデーション 89" x1="95.64" y1="36.06" x2="251.94" y2="36.06" gradientTransform="translate(0 79.85) scale(1 -1)" gradientUnits="userSpaceOnUse">
      <stop offset="0" stop-color="#009233"/>
      <stop offset="1" stop-color="#005016"/>
    </linearGradient>
    <linearGradient id="_名称未設定グラデーション_90" data-name="名称未設定グラデーション 90" x1="95.64" y1="36.05" x2="251.94" y2="36.05" gradientTransform="translate(0 79.85) scale(1 -1)" gradientUnits="userSpaceOnUse">
      <stop offset="0" stop-color="#009233"/>
      <stop offset="1" stop-color="#005016"/>
    </linearGradient>
    <linearGradient id="_名称未設定グラデーション_91" data-name="名称未設定グラデーション 91" x1="95.64" y1="36.06" x2="251.94" y2="36.06" gradientTransform="translate(0 79.85) scale(1 -1)" gradientUnits="userSpaceOnUse">
      <stop offset="0" stop-color="#009233"/>
      <stop offset="1" stop-color="#005016"/>
    </linearGradient>
    <linearGradient id="_名称未設定グラデーション_92" data-name="名称未設定グラデーション 92" x1="95.64" y1="36.06" x2="251.94" y2="36.06" gradientTransform="translate(0 79.85) scale(1 -1)" gradientUnits="userSpaceOnUse">
      <stop offset="0" stop-color="#009233"/>
      <stop offset="1" stop-color="#005016"/>
    </linearGradient>
    <linearGradient id="_名称未設定グラデーション_93" data-name="名称未設定グラデーション 93" x1="95.64" y1="34.24" x2="251.94" y2="34.24" gradientTransform="translate(0 79.85) scale(1 -1)" gradientUnits="userSpaceOnUse">
      <stop offset="0" stop-color="#009233"/>
      <stop offset="1" stop-color="#005016"/>
    </linearGradient>
  </defs>
  <!-- Generator: Adobe Illustrator 28.7.10, SVG Export Plug-In . SVG Version: 1.2.0 Build 236)  -->
  <g>
    <g id="_レイヤー_1" data-name="レイヤー_1">
      <g>
        <path class="cls-11" d="M86.57,50.85c-4.7-.52-11.97-1.22-20.89-1.7v-.38h.69c1.56,0,2.94-.93,3.5-2.38.56-1.43.21-3.03-.86-4.06l-6.41-6.32c.69-.43,1.22-1.11,1.47-1.95.19-.7.27-1.41.27-2.11.33.06.66.09,1,.09.79,0,1.56-.15,2.26-.45,1.38-.55,2.17-2.02,1.88-3.48,0-.05-.02-.09-.03-.14-.32-1.33-1.1-2.48-2.18-3.29.23-.29.44-.58.63-.9.84-1.49.43-3.37-.93-4.37-1.19-.88-2.57-1.37-4.02-1.49.02-.16.05-.31.06-.47.15-1.64-.95-3.12-2.57-3.44-.43-.09-.87-.13-1.34-.13-1.52,0-2.96.49-4.13,1.4-.31.23-.59.49-.85.76-.07,0-.15-.02-.21-.02-.08,0-.17.01-.25.02-.93-1.38-2.37-2.36-4.02-2.71-.21-.04-.46-.07-.67-.07-.08,0-.15.01-.23.02-.09-.73-.42-1.38-.92-1.89.25-.47.46-.98.59-1.51.01-.06.03-.12.04-.18.27-1.5-.55-3.01-2.03-3.6-.73-.28-1.53-.42-2.3-.42-.94,0-1.87.22-2.73.61-.02-.07-.02-.15-.04-.22-.46-1.77-1.64-3.27-3.24-4.13-.47-.26-.99-.39-1.55-.39-1.07,0-2.07.53-2.66,1.41-.5.73-.83,1.55-.99,2.4-.7-.19-1.42-.29-2.16-.29-.19,0-.38,0-.56.02-1.66.11-3,1.44-3.1,3.13-.13,2.37.76,4.68,2.44,6.34-.65.28-1.26.65-1.79,1.13-.04.04-.08.07-.11.11-.09.09-.16.19-.24.29.12-1.88-.52-3.74-1.8-5.14-.61-.68-1.47-1.07-2.39-1.07-.69,0-1.35.22-1.84.58-1.66,1.17-2.73,2.98-2.94,4.98-.02.21-.01.41-.01.62-.98-.39-2.03-.61-3.11-.61-1.65,0-3.06,1.23-3.27,2.87-.32,2.4.41,4.81,2,6.63.2.23.42.45.64.65-.46.22-.92.46-1.35.76-2.12,1.47-3.5,3.8-3.77,6.3-.23,1.69.9,3.3,2.48,3.64.71.18,1.45.27,2.18.27h0c1.18,0,2.33-.25,3.4-.7,1.14.91,2.54,1.42,4,1.43,0,0,.02,0,.02,0h.02c.19,0,.37-.01.57-.03.02.02.03.04.05.05.37.34.8.58,1.27.72-.13,1.24.03,2.5.5,3.68.04.11.08.22.13.33.53,1.16,1.7,1.92,2.98,1.92.3,0,.68-.06.96-.14.1-.03.2-.07.3-.11-.31,1.69-.54,3.48-.67,5.34-9.69.48-17.61,1.23-22.72,1.8-1.73.2-3,1.71-2.9,3.45.1,1.73,1.54,3.09,3.27,3.09h80.83c1.74,0,3.17-1.36,3.27-3.09.1-1.74-1.18-3.25-2.91-3.45ZM44.34,20.56c-.28,1.01-.24,2.08.1,3.06-.88.28-1.73.61-2.55.98-.18-.98-.31-2.1-.37-3.29.99-.07,1.94-.33,2.82-.76ZM52.55,37.81c-.3,0-.59.05-.87.13-.28-.07-.57-.13-.88-.13h-2.18c-.2,0-.4.03-.6.06l3.37-2.72,2.67,2.66h-1.52ZM30.67,25.8c.04-.08.08-.18.12-.26.79.39,1.66.63,2.56.63.1,0,.19,0,.29-.01.15,0,.31-.02.47-.04.05,0,.09-.02.14-.03.11.78.24,1.55.41,2.33-1.2-1.01-2.53-1.87-3.98-2.61ZM40.22,43.91c.28-.1.51-.22.69-.33.1-.06.2-.13.3-.21l4.25-3.42c-.16.4-.26.84-.26,1.29v2.18c0,.29.05.56.11.82-.07.27-.11.54-.11.83v2.18c0,.48.1.94.28,1.35-.94,0-1.87,0-2.79.01-1.07-.98-2.07-2.47-2.46-4.71ZM58.42,45.3v3.52c-.22,0-.43,0-.65-.02.24-.47.39-.99.39-1.56v-2.18c0-.29-.05-.56-.11-.83.07-.27.11-.54.11-.82v-1.54l1.08,1.07c-.51.65-.82,1.47-.82,2.35Z"/>
        <path class="cls-11" d="M251.94,36.89h-.77c-1.09,0-2.04.58-2.57,1.45l-.36-.42c-.57-.66-1.4-1.03-2.27-1.03h-.17c-1.65,0-2.98,1.33-3,2.97l-.57-1.22c-.49-1.06-1.58-1.73-2.74-1.73h-.19c-1.16,0-2.22.67-2.71,1.72l-.37.79c-.23-1.42-1.46-2.51-2.95-2.51h-4.47c-1.32,0-2.44.86-2.83,2.06-.4-1.19-1.51-2.06-2.83-2.06h-.79c-.88,0-1.66.38-2.21.98-.26-.17-.54-.34-.83-.48-1.01-.48-2.11-.73-3.27-.73-1.98,0-3.74.7-5.1,2.02-1.38,1.34-2.11,3.08-2.11,5.04,0,1.81.6,3.45,1.72,4.74,1.36,1.58,3.27,2.41,5.5,2.41,1.16,0,2.24-.23,3.22-.69.3-.14.58-.3.85-.48.55.61,1.34,1,2.22,1h3.79c.48,0,.93-.12,1.33-.33.4.2.85.33,1.33.33h4.45c.43,0,.84-.09,1.21-.26.36.15.75.26,1.16.26h.88c1.16,0,2.21-.67,2.71-1.71l.2-.43.21.44c.5,1.04,1.55,1.7,2.7,1.7h.84c.47,0,.92-.12,1.33-.33.4.19.84.31,1.31.31h.8c1.08,0,2.03-.57,2.55-1.43l.35.4c.57.65,1.39,1.03,2.26,1.03h.17c1.66,0,3-1.34,3-3v-7.82c0-1.66-1.34-3-3-3ZM216.55,43.91c-.19.22-.29.23-.46.23-.27,0-.33-.06-.39-.11-.03-.03-.06-.05-.06-.22,0-.13.02-.17.03-.19.04-.06.06-.08.11-.11.06-.03.13-.06.27-.06.11,0,.2.02.23.03.05.03.11.07.19.17.05.06.1.12.15.18-.02.03-.05.05-.07.08Z"/>
        <path class="cls-11" d="M204.47,43.95h-.96v-4.06c0-1.66-1.34-3-3-3h-.78c-1.32,0-2.42.85-2.83,2.03l-.13-.29c-.49-1.06-1.58-1.73-2.74-1.73h-.19c-.98,0-1.89.49-2.45,1.27-.54-.77-1.44-1.28-2.46-1.28h-4.73c1.4-.17,2.37-.8,2.95-1.63h4.26c.67,1.04,1.86,1.68,3.34,1.68,2.89,0,4.41-1.96,4.41-3.9,0-.21,0-.56-.02-1.04-.02-.87-.04-2.19-.05-3.84.24-.29.43-.64.57-1.05.12-.04.24-.09.36-.15.58.88,1.58,1.45,2.74,1.45.24,0,.47-.03.68-.07-.6.46-1.23.9-1.89,1.33-.02.01-.1.07-.12.08-1.09.74-1.64,1.69-1.64,2.85,0,1.8,1.42,3.21,3.22,3.21.76,0,1.33-.23,1.55-.32,3.07-1.12,5.93-3.03,8.44-5.64,2.35-2.35,4.14-4.96,5.6-7.24.73-.45,1.27-1.1,1.57-1.86.2-.41.31-.86.31-1.33,0-1.14-.59-2.3-1.55-3.12-.97-.88-2.19-1.78-3.86-1.78-.34,0-.76.05-1.22.22-.38-.56-.92-1.07-1.63-1.5-1.3-.8-2.68-1.26-3.79-1.26-2.07,0-3.75,1.51-3.75,3.36,0,.36.07,1.04.52,1.73-.46.71-.94,1.4-1.43,2.06-.22.29-.45.57-.68.85-.43-.56-1.04-.98-1.77-1.15-.05-.01-.11-.02-.17-.03-1.81-.3-3.28-.82-4.61-1.63-.89-.55-1.72-1.23-2.5-2.06.04-.21.06-.44.06-.68,0-2.59-1.71-3.05-5.44-4.06-.26-.07-.52-.1-.78-.1-1.27,0-2.44.81-2.85,2.07-.29.9-.75,1.86-1.36,2.89-.62,1.01-1.38,2-2.23,2.93-.22-.96-.87-1.77-1.78-2.18-.04-.02-.08-.04-.12-.05-1.06-.41-1.85-.83-2.49-1.33-.3-.22-.58-.5-.8-.8,0-.03,0-.06,0-.09,0-1.76-1.44-3.19-3.21-3.19-.94,0-1.77.28-2.42.74-.58-.21-1.21-.4-1.88-.6-.28-.08-.57-.12-.85-.12-.56,0-1.11.15-1.59.46-.43.27-.77.65-1.02,1.09-.89-.73-2.15-1.19-3.47-1.67-.33-.12-.67-.18-1.01-.18-.52,0-1.04.14-1.5.4-.76.44-1.29,1.2-1.45,2.07-.02.09-.03.19-.05.29-.37-.44-.8-.76-1.11-1-1.4-1.01-2.11-1.51-3.32-1.51s-1.93.51-2.77,1.36h-10.35c-.73-.36-1.05-.5-2.04-.95-.4-.18-.82-.27-1.24-.27-.6,0-1.2.18-1.71.54-.61.42-1.01,1.05-1.18,1.74-.85-.7-1.57-1.14-2.65-1.14-.38,0-.72.06-1.03.17-.93-1.08-2.7-1.31-4.54-1.55l-.2-.03c-.13-.02-.26-.03-.39-.03-.76,0-1.5.29-2.06.82-.53.51-.86,1.19-.92,1.91-.18-.02-.4-.05-.67-.1-.17-.03-.34-.04-.51-.05-.87-1.79-3.39-2.04-4.86-2.19-.1,0-.2-.01-.29-.01-.81,0-1.6.33-2.16.92-.64.66-.93,1.58-.81,2.49,0,.03,0,.07.01.11-.65.07-1.26.34-1.74.79-.66.62-1.01,1.51-.95,2.41,0,.08.01.16.02.23-.16-.39-.32-.79-.52-1.17-.04-.09-.08-.18-.13-.26-1.21-2.23-2.94-4.23-5.17-5.92-.15-.11-.31-.21-.47-.29-.5-.25-1.03-.38-1.56-.38-1.72,0-3.11,1.4-3.11,3.11,0,.54.12.99.29,1.36-.27-.08-.55-.13-.86-.13,0-.02,0-.04,0-.06,0-3.14-2.76-3.38-5.68-3.64-.09,0-.18-.01-.27-.01-.82,0-1.61.33-2.17.93-.16.17-.3.36-.42.56-.12-.01-.24-.02-.36-.02-.34,0-.67.06-.99.17-1.05-1.06-2.94-1.27-4.8-1.47-.11-.01-.22-.02-.33-.02-.38,0-.75.08-1.1.21-.57-.59-1.36-.97-2.24-.97-.29,0-.57.04-.84.12-.55.13-.96.38-1.2.58-2.2,1.68-3.93,3.67-5.17,5.94-1.21,2.27-1.82,4.73-1.82,7.32s.62,5.09,1.83,7.33c1.21,2.25,2.96,4.25,5.2,5.96.15.11.31.21.47.29.5.25,1.02.38,1.55.38.86,0,1.64-.35,2.2-.92.56.3,1.25.5,2.08.5,2.39,0,3.79-1.41,4.15-3,.35-.19.69-.38,1.02-.58.06,1.77,1.31,3.62,3.97,3.62s3.92-1.52,4.24-3.15c.45.3.86.5,1.26.63.13,1.61,1.45,2.89,3.09,2.89.98,0,1.68-.39,2.03-.68,2.21-1.7,3.96-3.69,5.19-5.96.24-.46.46-.92.65-1.4,0,.31-.01.59-.02.83-.01.46-.02.77-.02.96,0,1.73,1.19,3.59,3.79,3.59,1.33,0,2.44-.51,3.14-1.37.63.5,1.45.78,2.39.78.8,0,1.46-.18,2.01-.47.38.11.78.19,1.22.19.5,0,.97-.07,1.4-.2.41.6,1.03,1.06,1.77,1.25.14.04.25.07.35.1.4.92,1.12,1.55,2.07,1.85-.42.13-.8.33-1.12.61-.53-.47-1.23-.75-1.99-.75h-.78c-.62,0-1.2.19-1.68.51-.48-.32-1.06-.51-1.68-.51h-.78c-.51,0-.99.14-1.41.37-.43-.23-.92-.37-1.43-.37h-1.05c-.55,0-1.09.15-1.56.44-.46-.28-.99-.44-1.56-.44h-.79c-1.65,0-2.99,1.33-3,2.98l-.58-1.25c-.49-1.06-1.58-1.73-2.74-1.73h-.19c-1.16,0-2.22.67-2.71,1.72l-.57,1.2c-.09-.21-.19-.41-.33-.61-.61-.84-1.25-1.45-1.94-1.85-.77-.45-1.63-.67-2.53-.67-.84,0-1.65.21-2.47.66-.75.44-1.34,1.02-1.76,1.73-.43.73-.66,1.58-.66,2.45,0,.82.21,1.62.63,2.39-1.12.89-1.45,2.48-.75,3.77.06.1.12.2.18.3.51.86,1.13,1.54,1.84,2.02.87.59,1.89.9,2.97.9.98,0,1.9-.27,2.7-.75.5.35,1.09.57,1.72.57h.88c1.16,0,2.21-.67,2.71-1.71l.2-.43.21.44c.5,1.04,1.55,1.7,2.7,1.7h.84c.47,0,.92-.12,1.33-.32.4.2.85.32,1.33.32h.8c.64,0,1.23-.2,1.71-.54.5.35,1.09.54,1.71.54h1.04c.45,0,.89-.1,1.28-.29.39.18.81.29,1.26.29h.78c.62,0,1.2-.19,1.68-.51.48.32,1.06.51,1.68.51h.78c.76,0,1.46-.28,1.99-.75.53.47,1.22.75,1.99.75h.78c.48,0,.92-.12,1.32-.32.4.2.85.32,1.31.32h.88c1.16,0,2.21-.67,2.71-1.71l.2-.43.21.44c.5,1.04,1.55,1.7,2.7,1.7h.84c.48,0,.93-.12,1.35-.33.4.2.84.32,1.32.32h.78c.6,0,1.16-.18,1.63-.48.48.31,1.04.48,1.63.48h.96c.43,0,.85-.09,1.23-.26.38.17.78.28,1.2.28h.88c1.16,0,2.21-.67,2.71-1.71l.2-.43.21.44c.5,1.04,1.55,1.7,2.7,1.7h.84c1.03,0,1.98-.52,2.53-1.39.55-.86.62-1.95.19-2.88l-3.64-7.82c-.49-1.06-1.58-1.73-2.74-1.73h-.19c-1.16,0-2.22.67-2.71,1.72l-.8,1.7c-.19-.58-.49-1.12-.89-1.59-.71-.83-1.63-1.38-2.71-1.64-.15-.04-.32-.07-.5-.09.81-.09,1.77-.35,2.56-.85.76-.44,1.33-1,1.71-1.68.63.79,1.51,1.32,2.91,1.32h.01c.82,0,1.56-.24,2.2-.65.47.25.99.41,1.52.41.24,0,.47-.03.7-.08.59,1.03,1.71,1.82,3.43,1.82,1.94,0,3.15-.92,3.75-2.1.15-.02.31-.04.46-.07,1.58,1.57,4.35,1.57,5.5,1.57,1.63,0,2.88-.12,3.88-.38,1.14-.32,1.89-.85,2.38-1.42.1-.01.21-.01.3-.04.7-.12,1.34-.42,1.88-.84.32,1.59,1.55,2.68,3.25,2.88h-.16c-.7,0-1.33.25-1.84.64-1.03-.55-2.18-.83-3.42-.83-.11,0-.23,0-.34.02-1.1.05-2.15.35-3.13.9-.52-.45-1.2-.73-1.95-.73h-6.2c-1.66,0-3,1.34-3,3v.77c0,1.55,1.18,2.83,2.69,2.98v4.07c0,1.66,1.34,3,3,3h.8c1.36,0,2.49-.91,2.86-2.14.09.1.18.21.28.31,1.36,1.34,3.1,2.05,5.04,2.05s3.68-.72,5.04-2.08c.02-.02.04-.04.06-.07.43,1.13,1.52,1.93,2.8,1.93h.8c.75,0,1.42-.28,1.95-.74.54.47,1.23.75,1.97.75h.88c1.16,0,2.21-.67,2.71-1.71l.2-.43.21.44c.5,1.04,1.55,1.7,2.7,1.7h.84c.36,0,.69-.08,1.02-.2.32.12.66.19,1.02.19h4.74c1.66,0,3-1.34,3-3v-.75c0-1.66-1.34-3-3-3ZM79.1,23.6c0-.71.06-1.38.16-2.03.2.17.42.33.66.45-.23.74-.5,1.46-.79,2.17,0-.2-.02-.39-.02-.59ZM103.4,20.18c.09.31.16.62.22.94-.17-.19-.34-.36-.49-.5.1-.14.19-.28.27-.44ZM103.32,27.02c-.39-.14-.77-.31-1.14-.49.59-.16,1.1-.48,1.5-.9-.07.48-.17.96-.3,1.42-.02,0-.05-.02-.07-.03ZM144.49,36.89h-1.49s-.04,0-.05,0c-.76,0-1.5.3-2.06.84-.02.02-.05.04-.07.06-.03.03-.06.05-.09.08-.52.56-.79,1.28-.79,2.02l-.58-1.25c-.49-1.06-1.58-1.73-2.74-1.73h-.19c-1.16,0-2.22.67-2.71,1.72l-.61,1.29h0c0-1.33-.86-2.44-2.05-2.84.77-.17,1.49-.5,2.12-.97.49.29,1.04.45,1.62.45.72,0,1.43-.28,1.98-.75.43.22.91.34,1.4.34.46,0,.95-.11,1.37-.32.86-.43,1.6-.85,2.28-1.3.1.03.19.07.29.09.13.03.23.06.33.08.48,1.36,1.34,1.97,2.22,2.21-.06,0-.11,0-.17,0Z"/>
        <path class="cls-11" d="M221.14,18.74v.3c0,1.84-.01,2.68-.06,3.47,0,.19-.02.34-.03.45-.1.36-.2.84-.2,1.38,0,.98.23,1.92.69,2.76.5.87,1.17,1.52,1.93,1.91-.6.33-1.27.64-2.02.9-2.12.78-2.28,2.56-2.28,3.09,0,1.83,1.42,3.21,3.3,3.21.45,0,.77-.06,1.06-.13,3.55-.76,6.17-2.07,8.26-4.13.88-.87,2.46-2.76,3.06-5.56.42-1.66.66-4.75.66-8.47.34-.59.52-1.26.52-1.95,0-1.72-1.03-3.04-3.06-3.94-1-.44-2.24-.73-3.17-.73-.81,0-1.61.24-2.31.69-.08.05-.15.1-.22.16-.46.36-.81.76-1.06,1.19-.76-.36-1.69-.69-2.57-.69-.67,0-1.33.15-1.97.45-1.23.54-2.01,1.69-2.01,2.98,0,.55.15,1.81,1.47,2.66Z"/>
        <path class="cls-11" d="M274.13,15.06c-1,0-1.92.46-2.62,1.31-1.36,1.67-2.82,3.19-4.49,4.73,0-.04.01-.08.01-.13,0-2-1.17-3.83-3.14-4.91-1.21-.66-2.49-1.06-3.98-1.25-.38-.04-.6-.04-.75-.04h-.01c-1.78,0-3.22,1.43-3.22,3.19,0,.88.35,1.69.94,2.28-.43-.25-.83-.42-1.08-.52-.71-.29-1.46-.44-2.14-.44s-1.35.21-1.86.45c-.08.02-.27.05-.58.06-2.24.04-5.21.17-8.17.36-1.16.07-1.57.1-1.98.1-.86-.88-1.78-1.07-2.41-1.07-1.87,0-3.27,1.52-3.27,3.54,0,1.1.3,2.02.98,2.96.65.94,1.97,2.83,4.26,2.83.72,0,1.39-.17,1.96-.49.17-.03.52-.09,1.18-.14,2.61-.24,6.42-.33,8.21-.33.58,0,1.28.03,1.9.06.41.02.79.04,1.1.04.11.01.22.02.33.02.38,0,.73-.07,1.08-.18-.05.28-.08.58-.08.91,0,1.72,1.05,3.07,2.09,4.17.64.68,1.7,1.81,3.57,1.81.87,0,2.11-.28,3.19-1.6.03-.03.07-.06.1-.09,2.35-1.76,4.39-3.54,6.41-5.62,2.09-2.16,3.63-4.24,5.2-7,.15-.28.5-.92.5-1.81,0-1.8-1.42-3.21-3.22-3.21ZM259.65,24.54c-.21,0-.43.02-.64.07.06-.27.09-.55.09-.83,0-.48-.08-.91-.22-1.29,0,0,.01.02.01.03.52,1.3,1.53,2.21,2.76,2.56-.04.03-.08.05-.13.08-.45-.33-1.07-.62-1.89-.62Z"/>
      </g>
      <g id="_レイヤー_1-2" data-name="_レイヤー_1">
        <g>
          <g>
            <g>
              <path class="cls-1" d="M42.11,11.83c-.21,0-.42-.02-.62-.06-.08-.02-.15-.08-.17-.16s.02-.17.09-.22l1.72-1.17-1.91.79s-.05.02-.08.02c-.06,0-.11-.02-.15-.06-.06-.06-.08-.15-.04-.23.32-.71.86-1.28,1.55-1.64.5-.26,1.06-.4,1.63-.4.42,0,.85.08,1.25.23.1.04.15.14.13.25-.24.98-.88,1.8-1.77,2.27-.5.26-1.06.4-1.63.4v-.02Z"/>
              <path class="cls-1" d="M37.26,9.42s-.09-.01-.13-.04c-.61-.48-1.04-1.13-1.23-1.89-.25-.97-.06-2,.5-2.83.04-.06.11-.09.17-.09.03,0,.07,0,.1.02.89.46,1.54,1.28,1.79,2.25.19.77.13,1.55-.19,2.27-.03.08-.11.12-.19.12h0c-.08,0-.16-.06-.19-.13l-.74-1.95.32,2.04c0,.08-.03.17-.1.21-.03.02-.07.03-.11.03h0Z"/>
              <path class="cls-1" d="M34.74,13.95c.28.03.46-.3.28-.52l-2.01-2.39,2.48,1.94c.22.17.55,0,.51-.29-.15-1.13-.66-2.22-1.53-3.08-1.13-1.11-2.62-1.61-4.08-1.51-.16,0-.29.14-.3.3-.08,1.46.44,2.95,1.57,4.06.87.86,1.96,1.35,3.08,1.49Z"/>
              <path class="cls-1" d="M32.6,19.7c-.13,0-.26,0-.4-.02-1-.11-1.9-.65-2.47-1.47-.06-.09-.05-.2.03-.28.64-.58,1.47-.9,2.34-.9.13,0,.26,0,.4.02.79.09,1.5.43,2.05.98.06.06.08.15.05.23s-.11.13-.19.13h-2.08l2.02.42c.08.02.15.08.16.17s-.02.17-.1.21c-.55.33-1.17.51-1.81.51Z"/>
              <path class="cls-1" d="M50.82,20.81s-.05,0-.08-.02c-.72-.3-1.3-.82-1.69-1.5-.5-.87-.59-1.92-.27-2.87.03-.09.11-.14.2-.14h.04c.98.21,1.83.82,2.32,1.7.39.69.54,1.46.42,2.24,0,.08-.07.15-.16.17h-.05c-.07,0-.13-.03-.17-.09l-1.23-1.68.85,1.88c.04.08.02.17-.04.23-.04.04-.09.06-.15.06v.02Z"/>
              <path class="cls-1" d="M19.35,24.74c.27.05.46-.26.3-.48l-1.89-2.62,2.41,2.19c.2.18.52.03.51-.24-.06-1.17-.5-2.34-1.33-3.29-1.07-1.22-2.56-1.84-4.06-1.84-.15,0-.28.12-.3.27-.2,1.49.23,3.05,1.29,4.26.83.95,1.92,1.54,3.07,1.75Z"/>
              <path class="cls-1" d="M19.89,29.31c.08-.26-.21-.49-.44-.35l-3.15,1.78,2.74-2.41c.2-.18.09-.51-.18-.54-1.31-.1-2.66.24-3.83,1.05-1.47,1.02-2.33,2.58-2.51,4.23-.02.15.09.3.23.33,1.61.4,3.37.14,4.84-.88,1.16-.81,1.94-1.95,2.3-3.21Z"/>
              <path class="cls-1" d="M26.89,40.81c.06.13.2.19.33.15,1.24-.38,2.31-1.27,2.89-2.54.45-.98.52-2.04.29-3.02-.06-.24-.39-.29-.51-.07l-1.37,2.4.86-2.66c.08-.23-.17-.44-.39-.33-.89.47-1.64,1.22-2.09,2.21-.58,1.27-.54,2.67,0,3.85h-.01Z"/>
              <path class="cls-1" d="M21.64,34.31c-.84,0-1.65-.3-2.29-.86-.08-.07-.1-.19-.04-.27.56-.83,1.45-1.39,2.44-1.52.16-.02.32-.03.47-.03.62,0,1.22.17,1.76.48.07.04.11.13.1.21s-.07.15-.16.17l-2.02.51,2.07-.08c.08,0,.16.05.19.12.04.08.02.17-.04.23-.55.56-1.25.9-2.02,1.01-.16.02-.31.03-.47.03h.01Z"/>
              <path class="cls-1" d="M27.02,25.54s-.06,0-.09-.02c-.08-.04-.12-.12-.12-.2l.14-2.43-.63,2.33c-.02.08-.09.14-.18.15h-.03c-.08,0-.15-.04-.18-.11-.45-.8-.6-1.7-.44-2.6.19-1.13.87-2.13,1.85-2.72.03-.02.07-.03.11-.03.06,0,.12.03.16.08.73.89,1.03,2.05.84,3.18-.16.91-.6,1.71-1.29,2.31-.04.03-.09.05-.14.05h0Z"/>
              <path class="cls-1" d="M56.14,20.76c-.08,0-.16-.05-.19-.13s0-.17.05-.23l1.67-1.61-1.95,1.23s-.07.03-.11.03-.09-.01-.12-.04c-.07-.05-.1-.14-.08-.22.21-.84.68-1.57,1.38-2.1.67-.52,1.47-.79,2.32-.79.25,0,.5.02.75.07.1.02.18.11.17.22-.07,1.1-.61,2.11-1.48,2.78-.67.52-1.47.79-2.32.79h-.09Z"/>
              <path class="cls-1" d="M57.47,31.35c.77,1.21,1.99,1.96,3.3,2.19.18.03.36-.09.41-.26.35-1.28.18-2.7-.6-3.91-.56-.88-1.36-1.52-2.25-1.89-.32-.13-.64.2-.48.51l1.23,2.39-1.71-2.11c-.21-.26-.64-.13-.66.2-.05.99.19,2,.76,2.89h0Z"/>
              <path class="cls-1" d="M61.74,22.75l-2.59.83c-.33.1-.34.55-.03.69.89.4,1.91.54,2.95.33,1.41-.28,2.55-1.14,3.23-2.28.09-.16.05-.37-.1-.48-1.07-.79-2.45-1.14-3.86-.86-1.02.2-1.91.71-2.58,1.41-.24.25-.05.67.3.63l2.67-.28h0Z"/>
              <path class="cls-1" d="M48.42,23.88c-.46-.2-.82-.55-1.04-1-.28-.56-.3-1.21-.06-1.78.02-.04.06-.06.1-.06h.03c.6.15,1.11.56,1.39,1.12.23.45.29.95.17,1.44,0,.04-.04.07-.08.08h-.02s-.07-.02-.09-.05l-.73-1.12.48,1.23s0,.08-.03.11c-.02.02-.05.03-.07.03h-.05Z"/>
              <path class="cls-1" d="M44.02,17.26c1.11-.91,1.72-2.21,1.77-3.55,0-.16-.11-.3-.27-.33-1.32-.21-2.71.13-3.83,1.04-.84.69-1.39,1.61-1.64,2.59-.07.28.25.5.49.34l2.31-1.56-1.96,2.02c-.2.2-.05.55.24.54,1.02-.04,2.03-.4,2.88-1.09h0Z"/>
              <path class="cls-1" d="M33.35,23.16c-.69,0-1.36-.26-1.87-.73-.04-.03-.04-.09-.02-.13.44-.69,1.16-1.14,1.98-1.25.12-.02.24-.02.36-.02.54,0,1.09.17,1.54.47.04.02.05.06.05.1s-.04.07-.08.08l-1.75.43,1.79-.06s.08.02.09.06c.02.04.01.08-.02.11-.44.5-1.05.82-1.72.91-.12.02-.24.02-.36.02h.01Z"/>
              <path class="cls-1" d="M23.11,18.58s-.05,0-.08-.02c-.08-.03-.13-.11-.13-.19l-.02-2.45-.48,2.38c-.02.08-.08.15-.17.16h-.04c-.07,0-.14-.04-.18-.1-.5-.77-.71-1.67-.61-2.58.12-1.15.74-2.19,1.68-2.85.04-.03.08-.04.12-.04.06,0,.11.02.15.07.79.85,1.17,1.99,1.04,3.14-.1.92-.5,1.76-1.15,2.4-.04.04-.09.06-.15.06l.02.02Z"/>
              <path class="cls-1" d="M55.12,30.27c-.62-.08-1.17-.42-1.52-.94-.28-.42-.4-.91-.35-1.41,0-.04.03-.08.07-.09h.03s.06.01.08.04l.86,1.02-.63-1.17s-.02-.08,0-.12c.02-.02.05-.04.08-.04h.03c.48.15.88.44,1.16.86.35.52.45,1.16.28,1.76,0,.05-.05.08-.1.08h0,0Z"/>
              <path class="cls-1" d="M65.34,29.05c-.45,0-.88-.1-1.28-.3-.62-.31-1.11-.84-1.38-1.48-.02-.04,0-.08.02-.11.02-.02.05-.03.08-.03h.04l1.75.64-1.58-.98s-.05-.06-.05-.1.04-.08.08-.09c.24-.06.48-.09.73-.09.45,0,.88.1,1.28.3.76.38,1.31,1.07,1.51,1.89,0,.05,0,.1-.06.12-.36.15-.75.23-1.14.23Z"/>
              <path class="cls-12" d="M22.36,53.57c-.11,0-.2-.09-.21-.2,0-.11.08-.21.19-.21l8.25-.67c.06-6.39,1.21-12.09,3.26-16.04-.63-1.59-1.53-3.03-2.66-4.27-2.77.15-5.12,1.7-6.61,2.97-.04.03-.09.05-.13.05-.05,0-.1-.02-.14-.06-.08-.07-.09-.19-.02-.27,1.59-2.11,3.59-3.51,5.64-3.92-3.5-3-8.12-4.09-11.38-4.48-.11-.01-.19-.11-.18-.22s.1-.19.21-.19h0c1.68.01,3.32.16,4.85.44-.78-1.16-1.16-2.74-1.1-4.57,0-.11.09-.19.19-.2h.01c.1,0,.19.07.2.17.3,1.9,1.07,3.73,2.08,4.9,4.55,1.12,8.26,3.51,10.7,6.92h0c.83-1.17,1.77-2.24,2.79-3.18-1.19-3.88-1.62-7.74-1.27-11.48-.75-1.54-2.24-2.67-3.36-3.34-.09-.05-.13-.17-.08-.27.04-.07.11-.11.18-.11.03,0,.05,0,.08.02,1.33.55,2.47,1.27,3.37,2.14h0c.36-2.33,1.01-4.56,1.94-6.64.03-.08.11-.12.19-.12.02,0,.05,0,.07.01.1.04.16.15.13.25-1.67,5.79-1.36,14.38.65,18.02h0c2.51-1.76,5.47-2.9,8.78-3.38,2.57-2.19,3.58-3.84,4.75-6.48.03-.08.11-.12.19-.12.03,0,.05,0,.08.01.1.04.16.15.12.26-.59,1.72-1.6,4.18-3.13,6.12.62-.04,1.25-.06,1.9-.06,1.29,0,2.64.08,4.02.25.11.01.19.11.18.22,0,.11-.1.19-.21.19h-.28c-6.53,0-17.74,1.71-19.35,13.17-1.45,10.3,5.74,13.24,5.81,13.27l18.36.06v-7.23c0-.45.37-.81.81-.82h1.79c.17,0,.31-.1.38-.26.06-.16.03-.33-.09-.45l-11.82-11.76c-.26-.26-.61-.41-.98-.41-.32,0-.63.11-.87.31l-11.32,9.12s-.08.05-.13.05c-.02,0-.05,0-.07,0-.07-.02-.12-.08-.13-.15-.02-.1-.05-.26-.06-.49-.03-.53.11-.75.18-.81l11.53-9.4c.25-.21.57-.32.89-.32.38,0,.73.15,1,.41l14.38,14.16c.27.26.26.6.17.83s-.33.47-.71.47h-3.12c-.31,0-.57.25-.57.57v6.55l5.33.27c.11,0,.2.1.2.21s-.09.2-.21.2H22.36Z"/>
              <rect class="cls-12" x="48.19" y="40.81" width="3.04" height="3.04" rx=".43" ry=".43"/>
              <rect class="cls-12" x="52.12" y="40.81" width="3.04" height="3.04" rx=".43" ry=".43"/>
              <rect class="cls-12" x="48.19" y="44.64" width="3.04" height="3.04" rx=".43" ry=".43"/>
              <rect class="cls-12" x="52.12" y="44.64" width="3.04" height="3.04" rx=".43" ry=".43"/>
            </g>
            <path class="cls-12" d="M45.8,51.6c-17.98,0-33.19,1.42-40.45,2.23-.35.04-.32.56.03.56h80.83c.35,0,.38-.52.03-.56-7.26-.81-22.47-2.23-40.45-2.23h.01Z"/>
          </g>
          <g>
            <g>
              <g>
                <g>
                  <g>
                    <path class="cls-11" d="M219.46,41.34l-.62.47c-.35-.44-.75-.78-1.22-1.01-.48-.22-1-.35-1.57-.35-.62,0-1.2.15-1.73.44s-.94.7-1.23,1.21-.44,1.07-.44,1.7c0,.95.32,1.75.98,2.38.65.64,1.48.95,2.47.95,1.1,0,2.01-.43,2.74-1.28l.62.47c-.4.49-.88.88-1.46,1.15s-1.23.41-1.95.41c-1.37,0-2.44-.46-3.24-1.37-.67-.77-.99-1.69-.99-2.78,0-1.15.4-2.11,1.2-2.89s1.8-1.17,3.01-1.17c.73,0,1.38.15,1.98.43.59.28,1.07.69,1.44,1.21v.02Z"/>
                    <path class="cls-11" d="M222.35,39.9h.78v7.06h3v.75h-3.79v-7.82h.01Z"/>
                    <path class="cls-11" d="M228.8,39.9h4.47v.77h-3.69v2.44h3.67v.77h-3.67v3.07h3.67v.77h-4.45v-7.82h0Z"/>
                    <path class="cls-11" d="M239.52,39.9l3.64,7.82h-.84l-1.23-2.57h-3.37l-1.22,2.57h-.88l3.69-7.82h.21ZM239.42,41.55l-1.33,2.83h2.67l-1.33-2.83Z"/>
                    <path class="cls-11" d="M245.8,47.7v-7.82h.17l5.2,5.99v-5.99h.77v7.82h-.17l-5.16-5.91v5.91h-.8Z"/>
                  </g>
                  <g>
                    <path class="cls-11" d="M95.64,46.25l.67-.4c.47.86,1.01,1.28,1.62,1.28.26,0,.51-.06.74-.19.23-.12.41-.28.53-.49s.19-.42.19-.65c0-.26-.09-.52-.27-.77-.25-.35-.69-.77-1.33-1.26-.65-.49-1.06-.85-1.22-1.06-.27-.37-.42-.77-.42-1.2,0-.35.09-.65.25-.93s.4-.49.69-.67c.3-.16.62-.25.96-.25.37,0,.72.09,1.04.27.32.19.65.52,1.01,1.01l-.64.48c-.3-.4-.54-.64-.75-.77s-.43-.19-.68-.19c-.32,0-.57.1-.78.28-.2.19-.3.43-.3.7,0,.17.04.33.11.49s.2.33.38.52c.1.1.44.36,1.01.78.68.49,1.14.94,1.4,1.33.25.4.38.78.38,1.17,0,.57-.21,1.06-.64,1.48s-.95.63-1.57.63c-.47,0-.9-.12-1.28-.38s-.74-.68-1.06-1.27h-.02Z"/>
                    <path class="cls-11" d="M106.34,39.89l3.64,7.82h-.84l-1.23-2.57h-3.37l-1.22,2.57h-.88l3.69-7.82h.21ZM106.24,41.55l-1.33,2.83h2.67l-1.33-2.83Z"/>
                    <path class="cls-11" d="M112.62,39.89h.8v2.93l3.12-2.93h1.05l-3.75,3.51,4.05,4.31h-1.04l-3.42-3.64v3.64h-.8v-7.82h-.01Z"/>
                    <path class="cls-11" d="M120.44,39.89h.78v7.82h-.78s0-7.82,0-7.82Z"/>
                    <path class="cls-11" d="M124.57,39.89h.78v3.27h3.98v-3.27h.78v7.82h-.78v-3.77h-3.98v3.77h-.78s0-7.82,0-7.82Z"/>
                    <path class="cls-11" d="M136.64,39.89l3.64,7.82h-.84l-1.23-2.57h-3.37l-1.22,2.57h-.88l3.69-7.82h.21ZM136.54,41.55l-1.33,2.83h2.67l-1.33-2.83Z"/>
                    <path class="cls-11" d="M142.93,39.89h1.56c.86,0,1.46.04,1.77.11.47.11.84.33,1.14.68s.43.78.43,1.28c0,.42-.1.8-.3,1.12s-.48.57-.85.73-.89.25-1.54.25l2.82,3.63h-.96l-2.82-3.63h-.44v3.63h-.78v-7.82h-.01ZM143.71,40.65v2.65h1.35c.52,0,.9-.04,1.16-.14.25-.1.44-.26.58-.47.14-.22.21-.46.21-.73s-.07-.51-.21-.72c-.14-.21-.33-.37-.56-.46-.23-.09-.62-.14-1.15-.14h-1.38Z"/>
                    <path class="cls-11" d="M154.28,39.89l3.64,7.82h-.84l-1.23-2.57h-3.37l-1.22,2.57h-.88l3.69-7.82h.21ZM154.18,41.55l-1.33,2.83h2.67l-1.33-2.83Z"/>
                  </g>
                </g>
                <g>
                  <path class="cls-11" d="M194.05,39.9l3.64,7.82h-.84l-1.23-2.57h-3.37l-1.22,2.57h-.88l3.69-7.82h.21ZM193.95,41.55l-1.33,2.83h2.67l-1.33-2.83Z"/>
                  <path class="cls-11" d="M199.73,39.89h.78v7.06h3.96v.75h-4.74v-7.82h0Z"/>
                  <path class="cls-11" d="M177.48,39.7c1.19,0,2.17.4,2.98,1.19s1.2,1.77,1.2,2.91-.4,2.11-1.2,2.91-1.77,1.2-2.91,1.2-2.14-.4-2.94-1.19c-.8-.79-1.2-1.75-1.2-2.88,0-.75.19-1.44.54-2.09.36-.64.85-1.15,1.48-1.51s1.31-.54,2.04-.54h.01ZM177.51,40.46c-.58,0-1.12.15-1.64.46s-.93.7-1.21,1.22c-.3.51-.43,1.07-.43,1.7,0,.93.32,1.72.96,2.36s1.42.96,2.32.96c.61,0,1.17-.15,1.68-.44s.91-.69,1.21-1.21c.28-.51.43-1.07.43-1.7s-.15-1.19-.43-1.68c-.28-.51-.69-.9-1.22-1.2s-1.09-.46-1.67-.46h0Z"/>
                  <path class="cls-11" d="M165.86,40.65v-.77h6.2v.77h-2.7v7.05h-.8v-7.05h-2.7.01Z"/>
                  <path class="cls-11" d="M182.74,40.65v-.77h6.2v.77h-2.7v7.05h-.8v-7.05h-2.7.01Z"/>
                  <path class="cls-11" d="M178.49,47.01s-.78-.57-.58-1.57c.14-.68.4-1.07.81-1.2-.51.32-.62.85-.67,1.1s.22.53.63.27.41-1,.43-1.26.16-.47.16-.47c0,0-.69,0-1.19.51s-.48.98-.48.98c0,0-.26-.47-.8-.52s-.93.16-.93.16c0,0,.3.19.4.52s.49.73,1,.43c.07-.05.07-.19.06-.21-.27-.56-.8-.69-.95-.72.35-.06.96.19,1.12.7.35,1.06-.54,1.33-.54,1.4,0,.2.99.41,1.52-.11h0Z"/>
                </g>
              </g>
              <g>
                <g>
                  <g>
                    <g>
                      <path class="cls-13" d="M219.46,41.34l-.62.47c-.35-.44-.75-.78-1.22-1.01-.48-.22-1-.35-1.57-.35-.62,0-1.2.15-1.73.44s-.94.7-1.23,1.21-.44,1.07-.44,1.7c0,.95.32,1.75.98,2.38.65.64,1.48.95,2.47.95,1.1,0,2.01-.43,2.74-1.28l.62.47c-.4.49-.88.88-1.46,1.15s-1.23.41-1.95.41c-1.37,0-2.44-.46-3.24-1.37-.67-.77-.99-1.69-.99-2.78,0-1.15.4-2.11,1.2-2.89s1.8-1.17,3.01-1.17c.73,0,1.38.15,1.98.43.59.28,1.07.69,1.44,1.21v.02Z"/>
                      <path class="cls-7" d="M222.35,39.9h.78v7.06h3v.75h-3.79v-7.82h.01Z"/>
                      <path class="cls-6" d="M228.8,39.9h4.47v.77h-3.69v2.44h3.67v.77h-3.67v3.07h3.67v.77h-4.45v-7.82h0Z"/>
                      <path class="cls-5" d="M239.52,39.9l3.64,7.82h-.84l-1.23-2.57h-3.37l-1.22,2.57h-.88l3.69-7.82h.21ZM239.42,41.55l-1.33,2.83h2.67l-1.33-2.83Z"/>
                      <path class="cls-4" d="M245.8,47.7v-7.82h.17l5.2,5.99v-5.99h.77v7.82h-.17l-5.16-5.91v5.91h-.8Z"/>
                    </g>
                    <g>
                      <g>
                        <path class="cls-3" d="M95.64,46.25l.67-.4c.47.86,1.01,1.28,1.62,1.28.26,0,.51-.06.74-.19.23-.12.41-.28.53-.49s.19-.42.19-.65c0-.26-.09-.52-.27-.77-.25-.35-.69-.77-1.33-1.26-.65-.49-1.06-.85-1.22-1.06-.27-.37-.42-.77-.42-1.2,0-.35.09-.65.25-.93s.4-.49.69-.67c.3-.16.62-.25.96-.25.37,0,.72.09,1.04.27.32.19.65.52,1.01,1.01l-.64.48c-.3-.4-.54-.64-.75-.77s-.43-.19-.68-.19c-.32,0-.57.1-.78.28-.2.19-.3.43-.3.7,0,.17.04.33.11.49s.2.33.38.52c.1.1.44.36,1.01.78.68.49,1.14.94,1.4,1.33.25.4.38.78.38,1.17,0,.57-.21,1.06-.64,1.48s-.95.63-1.57.63c-.47,0-.9-.12-1.28-.38s-.74-.68-1.06-1.27h-.02Z"/>
                        <path class="cls-9" d="M106.34,39.89l3.64,7.82h-.84l-1.23-2.57h-3.37l-1.22,2.57h-.88l3.69-7.82h.21ZM106.24,41.55l-1.33,2.83h2.67l-1.33-2.83Z"/>
                        <path class="cls-8" d="M112.62,39.89h.8v2.93l3.12-2.93h1.05l-3.75,3.51,4.05,4.31h-1.04l-3.42-3.64v3.64h-.8v-7.82h-.01Z"/>
                        <path class="cls-2" d="M120.44,39.89h.78v7.82h-.78s0-7.82,0-7.82Z"/>
                        <path class="cls-77" d="M124.57,39.89h.78v3.27h3.98v-3.27h.78v7.82h-.78v-3.77h-3.98v3.77h-.78s0-7.82,0-7.82Z"/>
                        <path class="cls-51" d="M136.64,39.89l3.64,7.82h-.84l-1.23-2.57h-3.37l-1.22,2.57h-.88l3.69-7.82h.21ZM136.54,41.55l-1.33,2.83h2.67l-1.33-2.83Z"/>
                        <path class="cls-48" d="M142.93,39.89h1.56c.86,0,1.46.04,1.77.11.47.11.84.33,1.14.68s.43.78.43,1.28c0,.42-.1.8-.3,1.12s-.48.57-.85.73-.89.25-1.54.25l2.82,3.63h-.96l-2.82-3.63h-.44v3.63h-.78v-7.82h-.01ZM143.71,40.65v2.65h1.35c.52,0,.9-.04,1.16-.14.25-.1.44-.26.58-.47.14-.22.21-.46.21-.73s-.07-.51-.21-.72c-.14-.21-.33-.37-.56-.46-.23-.09-.62-.14-1.15-.14h-1.38Z"/>
                        <path class="cls-49" d="M154.28,39.89l3.64,7.82h-.84l-1.23-2.57h-3.37l-1.22,2.57h-.88l3.69-7.82h.21ZM154.18,41.55l-1.33,2.83h2.67l-1.33-2.83Z"/>
                      </g>
                      <g>
                        <path class="cls-47" d="M95.64,46.25l.67-.4c.47.86,1.01,1.28,1.62,1.28.26,0,.51-.06.74-.19.23-.12.41-.28.53-.49s.19-.42.19-.65c0-.26-.09-.52-.27-.77-.25-.35-.69-.77-1.33-1.26-.65-.49-1.06-.85-1.22-1.06-.27-.37-.42-.77-.42-1.2,0-.35.09-.65.25-.93s.4-.49.69-.67c.3-.16.62-.25.96-.25.37,0,.72.09,1.04.27.32.19.65.52,1.01,1.01l-.64.48c-.3-.4-.54-.64-.75-.77s-.43-.19-.68-.19c-.32,0-.57.1-.78.28-.2.19-.3.43-.3.7,0,.17.04.33.11.49s.2.33.38.52c.1.1.44.36,1.01.78.68.49,1.14.94,1.4,1.33.25.4.38.78.38,1.17,0,.57-.21,1.06-.64,1.48s-.95.63-1.57.63c-.47,0-.9-.12-1.28-.38s-.74-.68-1.06-1.27h-.02Z"/>
                        <path class="cls-55" d="M106.34,39.89l3.64,7.82h-.84l-1.23-2.57h-3.37l-1.22,2.57h-.88l3.69-7.82h.21ZM106.24,41.55l-1.33,2.83h2.67l-1.33-2.83Z"/>
                        <path class="cls-53" d="M112.62,39.89h.8v2.93l3.12-2.93h1.05l-3.75,3.51,4.05,4.31h-1.04l-3.42-3.64v3.64h-.8v-7.82h-.01Z"/>
                        <path class="cls-54" d="M120.44,39.89h.78v7.82h-.78s0-7.82,0-7.82Z"/>
                        <path class="cls-50" d="M124.57,39.89h.78v3.27h3.98v-3.27h.78v7.82h-.78v-3.77h-3.98v3.77h-.78s0-7.82,0-7.82Z"/>
                        <path class="cls-52" d="M136.64,39.89l3.64,7.82h-.84l-1.23-2.57h-3.37l-1.22,2.57h-.88l3.69-7.82h.21ZM136.54,41.55l-1.33,2.83h2.67l-1.33-2.83Z"/>
                        <path class="cls-71" d="M142.93,39.89h1.56c.86,0,1.46.04,1.77.11.47.11.84.33,1.14.68s.43.78.43,1.28c0,.42-.1.8-.3,1.12s-.48.57-.85.73-.89.25-1.54.25l2.82,3.63h-.96l-2.82-3.63h-.44v3.63h-.78v-7.82h-.01ZM143.71,40.65v2.65h1.35c.52,0,.9-.04,1.16-.14.25-.1.44-.26.58-.47.14-.22.21-.46.21-.73s-.07-.51-.21-.72c-.14-.21-.33-.37-.56-.46-.23-.09-.62-.14-1.15-.14h-1.38Z"/>
                        <path class="cls-72" d="M154.28,39.89l3.64,7.82h-.84l-1.23-2.57h-3.37l-1.22,2.57h-.88l3.69-7.82h.21ZM154.18,41.55l-1.33,2.83h2.67l-1.33-2.83Z"/>
                      </g>
                      <g>
                        <path class="cls-75" d="M95.64,46.25l.67-.4c.47.86,1.01,1.28,1.62,1.28.26,0,.51-.06.74-.19.23-.12.41-.28.53-.49s.19-.42.19-.65c0-.26-.09-.52-.27-.77-.25-.35-.69-.77-1.33-1.26-.65-.49-1.06-.85-1.22-1.06-.27-.37-.42-.77-.42-1.2,0-.35.09-.65.25-.93s.4-.49.69-.67c.3-.16.62-.25.96-.25.37,0,.72.09,1.04.27.32.19.65.52,1.01,1.01l-.64.48c-.3-.4-.54-.64-.75-.77s-.43-.19-.68-.19c-.32,0-.57.1-.78.28-.2.19-.3.43-.3.7,0,.17.04.33.11.49s.2.33.38.52c.1.1.44.36,1.01.78.68.49,1.14.94,1.4,1.33.25.4.38.78.38,1.17,0,.57-.21,1.06-.64,1.48s-.95.63-1.57.63c-.47,0-.9-.12-1.28-.38s-.74-.68-1.06-1.27h-.02Z"/>
                        <path class="cls-67" d="M106.34,39.89l3.64,7.82h-.84l-1.23-2.57h-3.37l-1.22,2.57h-.88l3.69-7.82h.21ZM106.24,41.55l-1.33,2.83h2.67l-1.33-2.83Z"/>
                        <path class="cls-68" d="M112.62,39.89h.8v2.93l3.12-2.93h1.05l-3.75,3.51,4.05,4.31h-1.04l-3.42-3.64v3.64h-.8v-7.82h-.01Z"/>
                        <path class="cls-69" d="M120.44,39.89h.78v7.82h-.78s0-7.82,0-7.82Z"/>
                        <path class="cls-76" d="M124.57,39.89h.78v3.27h3.98v-3.27h.78v7.82h-.78v-3.77h-3.98v3.77h-.78s0-7.82,0-7.82Z"/>
                        <path class="cls-70" d="M136.64,39.89l3.64,7.82h-.84l-1.23-2.57h-3.37l-1.22,2.57h-.88l3.69-7.82h.21ZM136.54,41.55l-1.33,2.83h2.67l-1.33-2.83Z"/>
                        <path class="cls-73" d="M142.93,39.89h1.56c.86,0,1.46.04,1.77.11.47.11.84.33,1.14.68s.43.78.43,1.28c0,.42-.1.8-.3,1.12s-.48.57-.85.73-.89.25-1.54.25l2.82,3.63h-.96l-2.82-3.63h-.44v3.63h-.78v-7.82h-.01ZM143.71,40.65v2.65h1.35c.52,0,.9-.04,1.16-.14.25-.1.44-.26.58-.47.14-.22.21-.46.21-.73s-.07-.51-.21-.72c-.14-.21-.33-.37-.56-.46-.23-.09-.62-.14-1.15-.14h-1.38Z"/>
                        <path class="cls-74" d="M154.28,39.89l3.64,7.82h-.84l-1.23-2.57h-3.37l-1.22,2.57h-.88l3.69-7.82h.21ZM154.18,41.55l-1.33,2.83h2.67l-1.33-2.83Z"/>
                      </g>
                    </g>
                  </g>
                  <g>
                    <g>
                      <path class="cls-66" d="M219.46,41.34l-.62.47c-.35-.44-.75-.78-1.22-1.01-.48-.22-1-.35-1.57-.35-.62,0-1.2.15-1.73.44s-.94.7-1.23,1.21-.44,1.07-.44,1.7c0,.95.32,1.75.98,2.38.65.64,1.48.95,2.47.95,1.1,0,2.01-.43,2.74-1.28l.62.47c-.4.49-.88.88-1.46,1.15s-1.23.41-1.95.41c-1.37,0-2.44-.46-3.24-1.37-.67-.77-.99-1.69-.99-2.78,0-1.15.4-2.11,1.2-2.89s1.8-1.17,3.01-1.17c.73,0,1.38.15,1.98.43.59.28,1.07.69,1.44,1.21v.02Z"/>
                      <path class="cls-21" d="M222.35,39.9h.78v7.06h3v.75h-3.79v-7.82h.01Z"/>
                      <path class="cls-22" d="M228.8,39.9h4.47v.77h-3.69v2.44h3.67v.77h-3.67v3.07h3.67v.77h-4.45v-7.82h0Z"/>
                      <path class="cls-25" d="M239.52,39.9l3.64,7.82h-.84l-1.23-2.57h-3.37l-1.22,2.57h-.88l3.69-7.82h.21ZM239.42,41.55l-1.33,2.83h2.67l-1.33-2.83Z"/>
                      <path class="cls-26" d="M245.8,47.7v-7.82h.17l5.2,5.99v-5.99h.77v7.82h-.17l-5.16-5.91v5.91h-.8Z"/>
                    </g>
                    <g>
                      <g>
                        <path class="cls-23" d="M95.64,46.25l.67-.4c.47.86,1.01,1.28,1.62,1.28.26,0,.51-.06.74-.19.23-.12.41-.28.53-.49s.19-.42.19-.65c0-.26-.09-.52-.27-.77-.25-.35-.69-.77-1.33-1.26-.65-.49-1.06-.85-1.22-1.06-.27-.37-.42-.77-.42-1.2,0-.35.09-.65.25-.93s.4-.49.69-.67c.3-.16.62-.25.96-.25.37,0,.72.09,1.04.27.32.19.65.52,1.01,1.01l-.64.48c-.3-.4-.54-.64-.75-.77s-.43-.19-.68-.19c-.32,0-.57.1-.78.28-.2.19-.3.43-.3.7,0,.17.04.33.11.49s.2.33.38.52c.1.1.44.36,1.01.78.68.49,1.14.94,1.4,1.33.25.4.38.78.38,1.17,0,.57-.21,1.06-.64,1.48s-.95.63-1.57.63c-.47,0-.9-.12-1.28-.38s-.74-.68-1.06-1.27h-.02Z"/>
                        <path class="cls-24" d="M106.34,39.89l3.64,7.82h-.84l-1.23-2.57h-3.37l-1.22,2.57h-.88l3.69-7.82h.21ZM106.24,41.55l-1.33,2.83h2.67l-1.33-2.83Z"/>
                        <path class="cls-19" d="M112.62,39.89h.8v2.93l3.12-2.93h1.05l-3.75,3.51,4.05,4.31h-1.04l-3.42-3.64v3.64h-.8v-7.82h-.01Z"/>
                        <path class="cls-20" d="M120.44,39.89h.78v7.82h-.78s0-7.82,0-7.82Z"/>
                        <path class="cls-18" d="M124.57,39.89h.78v3.27h3.98v-3.27h.78v7.82h-.78v-3.77h-3.98v3.77h-.78s0-7.82,0-7.82Z"/>
                        <path class="cls-62" d="M136.64,39.89l3.64,7.82h-.84l-1.23-2.57h-3.37l-1.22,2.57h-.88l3.69-7.82h.21ZM136.54,41.55l-1.33,2.83h2.67l-1.33-2.83Z"/>
                        <path class="cls-56" d="M142.93,39.89h1.56c.86,0,1.46.04,1.77.11.47.11.84.33,1.14.68s.43.78.43,1.28c0,.42-.1.8-.3,1.12s-.48.57-.85.73-.89.25-1.54.25l2.82,3.63h-.96l-2.82-3.63h-.44v3.63h-.78v-7.82h-.01ZM143.71,40.65v2.65h1.35c.52,0,.9-.04,1.16-.14.25-.1.44-.26.58-.47.14-.22.21-.46.21-.73s-.07-.51-.21-.72c-.14-.21-.33-.37-.56-.46-.23-.09-.62-.14-1.15-.14h-1.38Z"/>
                        <path class="cls-58" d="M154.28,39.89l3.64,7.82h-.84l-1.23-2.57h-3.37l-1.22,2.57h-.88l3.69-7.82h.21ZM154.18,41.55l-1.33,2.83h2.67l-1.33-2.83Z"/>
                      </g>
                      <g>
                        <path class="cls-59" d="M95.64,46.25l.67-.4c.47.86,1.01,1.28,1.62,1.28.26,0,.51-.06.74-.19.23-.12.41-.28.53-.49s.19-.42.19-.65c0-.26-.09-.52-.27-.77-.25-.35-.69-.77-1.33-1.26-.65-.49-1.06-.85-1.22-1.06-.27-.37-.42-.77-.42-1.2,0-.35.09-.65.25-.93s.4-.49.69-.67c.3-.16.62-.25.96-.25.37,0,.72.09,1.04.27.32.19.65.52,1.01,1.01l-.64.48c-.3-.4-.54-.64-.75-.77s-.43-.19-.68-.19c-.32,0-.57.1-.78.28-.2.19-.3.43-.3.7,0,.17.04.33.11.49s.2.33.38.52c.1.1.44.36,1.01.78.68.49,1.14.94,1.4,1.33.25.4.38.78.38,1.17,0,.57-.21,1.06-.64,1.48s-.95.63-1.57.63c-.47,0-.9-.12-1.28-.38s-.74-.68-1.06-1.27h-.02Z"/>
                        <path class="cls-60" d="M106.34,39.89l3.64,7.82h-.84l-1.23-2.57h-3.37l-1.22,2.57h-.88l3.69-7.82h.21ZM106.24,41.55l-1.33,2.83h2.67l-1.33-2.83Z"/>
                        <path class="cls-61" d="M112.62,39.89h.8v2.93l3.12-2.93h1.05l-3.75,3.51,4.05,4.31h-1.04l-3.42-3.64v3.64h-.8v-7.82h-.01Z"/>
                        <path class="cls-63" d="M120.44,39.89h.78v7.82h-.78s0-7.82,0-7.82Z"/>
                        <path class="cls-64" d="M124.57,39.89h.78v3.27h3.98v-3.27h.78v7.82h-.78v-3.77h-3.98v3.77h-.78s0-7.82,0-7.82Z"/>
                        <path class="cls-65" d="M136.64,39.89l3.64,7.82h-.84l-1.23-2.57h-3.37l-1.22,2.57h-.88l3.69-7.82h.21ZM136.54,41.55l-1.33,2.83h2.67l-1.33-2.83Z"/>
                        <path class="cls-57" d="M142.93,39.89h1.56c.86,0,1.46.04,1.77.11.47.11.84.33,1.14.68s.43.78.43,1.28c0,.42-.1.8-.3,1.12s-.48.57-.85.73-.89.25-1.54.25l2.82,3.63h-.96l-2.82-3.63h-.44v3.63h-.78v-7.82h-.01ZM143.71,40.65v2.65h1.35c.52,0,.9-.04,1.16-.14.25-.1.44-.26.58-.47.14-.22.21-.46.21-.73s-.07-.51-.21-.72c-.14-.21-.33-.37-.56-.46-.23-.09-.62-.14-1.15-.14h-1.38Z"/>
                        <path class="cls-86" d="M154.28,39.89l3.64,7.82h-.84l-1.23-2.57h-3.37l-1.22,2.57h-.88l3.69-7.82h.21ZM154.18,41.55l-1.33,2.83h2.67l-1.33-2.83Z"/>
                      </g>
                      <g>
                        <path class="cls-87" d="M95.64,46.25l.67-.4c.47.86,1.01,1.28,1.62,1.28.26,0,.51-.06.74-.19.23-.12.41-.28.53-.49s.19-.42.19-.65c0-.26-.09-.52-.27-.77-.25-.35-.69-.77-1.33-1.26-.65-.49-1.06-.85-1.22-1.06-.27-.37-.42-.77-.42-1.2,0-.35.09-.65.25-.93s.4-.49.69-.67c.3-.16.62-.25.96-.25.37,0,.72.09,1.04.27.32.19.65.52,1.01,1.01l-.64.48c-.3-.4-.54-.64-.75-.77s-.43-.19-.68-.19c-.32,0-.57.1-.78.28-.2.19-.3.43-.3.7,0,.17.04.33.11.49s.2.33.38.52c.1.1.44.36,1.01.78.68.49,1.14.94,1.4,1.33.25.4.38.78.38,1.17,0,.57-.21,1.06-.64,1.48s-.95.63-1.57.63c-.47,0-.9-.12-1.28-.38s-.74-.68-1.06-1.27h-.02Z"/>
                        <path class="cls-84" d="M106.34,39.89l3.64,7.82h-.84l-1.23-2.57h-3.37l-1.22,2.57h-.88l3.69-7.82h.21ZM106.24,41.55l-1.33,2.83h2.67l-1.33-2.83Z"/>
                        <path class="cls-85" d="M112.62,39.89h.8v2.93l3.12-2.93h1.05l-3.75,3.51,4.05,4.31h-1.04l-3.42-3.64v3.64h-.8v-7.82h-.01Z"/>
                        <path class="cls-80" d="M120.44,39.89h.78v7.82h-.78s0-7.82,0-7.82Z"/>
                        <path class="cls-81" d="M124.57,39.89h.78v3.27h3.98v-3.27h.78v7.82h-.78v-3.77h-3.98v3.77h-.78s0-7.82,0-7.82Z"/>
                        <path class="cls-78" d="M136.64,39.89l3.64,7.82h-.84l-1.23-2.57h-3.37l-1.22,2.57h-.88l3.69-7.82h.21ZM136.54,41.55l-1.33,2.83h2.67l-1.33-2.83Z"/>
                        <path class="cls-79" d="M142.93,39.89h1.56c.86,0,1.46.04,1.77.11.47.11.84.33,1.14.68s.43.78.43,1.28c0,.42-.1.8-.3,1.12s-.48.57-.85.73-.89.25-1.54.25l2.82,3.63h-.96l-2.82-3.63h-.44v3.63h-.78v-7.82h-.01ZM143.71,40.65v2.65h1.35c.52,0,.9-.04,1.16-.14.25-.1.44-.26.58-.47.14-.22.21-.46.21-.73s-.07-.51-.21-.72c-.14-.21-.33-.37-.56-.46-.23-.09-.62-.14-1.15-.14h-1.38Z"/>
                        <path class="cls-82" d="M154.28,39.89l3.64,7.82h-.84l-1.23-2.57h-3.37l-1.22,2.57h-.88l3.69-7.82h.21ZM154.18,41.55l-1.33,2.83h2.67l-1.33-2.83Z"/>
                      </g>
                    </g>
                  </g>
                  <g>
                    <g>
                      <path class="cls-83" d="M219.46,41.34l-.62.47c-.35-.44-.75-.78-1.22-1.01-.48-.22-1-.35-1.57-.35-.62,0-1.2.15-1.73.44s-.94.7-1.23,1.21-.44,1.07-.44,1.7c0,.95.32,1.75.98,2.38.65.64,1.48.95,2.47.95,1.1,0,2.01-.43,2.74-1.28l.62.47c-.4.49-.88.88-1.46,1.15s-1.23.41-1.95.41c-1.37,0-2.44-.46-3.24-1.37-.67-.77-.99-1.69-.99-2.78,0-1.15.4-2.11,1.2-2.89s1.8-1.17,3.01-1.17c.73,0,1.38.15,1.98.43.59.28,1.07.69,1.44,1.21v.02Z"/>
                      <path class="cls-28" d="M222.35,39.9h.78v7.06h3v.75h-3.79v-7.82h.01Z"/>
                      <path class="cls-34" d="M228.8,39.9h4.47v.77h-3.69v2.44h3.67v.77h-3.67v3.07h3.67v.77h-4.45v-7.82h0Z"/>
                      <path class="cls-32" d="M239.52,39.9l3.64,7.82h-.84l-1.23-2.57h-3.37l-1.22,2.57h-.88l3.69-7.82h.21ZM239.42,41.55l-1.33,2.83h2.67l-1.33-2.83Z"/>
                      <path class="cls-35" d="M245.8,47.7v-7.82h.17l5.2,5.99v-5.99h.77v7.82h-.17l-5.16-5.91v5.91h-.8Z"/>
                    </g>
                    <g>
                      <g>
                        <path class="cls-30" d="M95.64,46.25l.67-.4c.47.86,1.01,1.28,1.62,1.28.26,0,.51-.06.74-.19.23-.12.41-.28.53-.49s.19-.42.19-.65c0-.26-.09-.52-.27-.77-.25-.35-.69-.77-1.33-1.26-.65-.49-1.06-.85-1.22-1.06-.27-.37-.42-.77-.42-1.2,0-.35.09-.65.25-.93s.4-.49.69-.67c.3-.16.62-.25.96-.25.37,0,.72.09,1.04.27.32.19.65.52,1.01,1.01l-.64.48c-.3-.4-.54-.64-.75-.77s-.43-.19-.68-.19c-.32,0-.57.1-.78.28-.2.19-.3.43-.3.7,0,.17.04.33.11.49s.2.33.38.52c.1.1.44.36,1.01.78.68.49,1.14.94,1.4,1.33.25.4.38.78.38,1.17,0,.57-.21,1.06-.64,1.48s-.95.63-1.57.63c-.47,0-.9-.12-1.28-.38s-.74-.68-1.06-1.27h-.02Z"/>
                        <path class="cls-29" d="M106.34,39.89l3.64,7.82h-.84l-1.23-2.57h-3.37l-1.22,2.57h-.88l3.69-7.82h.21ZM106.24,41.55l-1.33,2.83h2.67l-1.33-2.83Z"/>
                        <path class="cls-27" d="M112.62,39.89h.8v2.93l3.12-2.93h1.05l-3.75,3.51,4.05,4.31h-1.04l-3.42-3.64v3.64h-.8v-7.82h-.01Z"/>
                        <path class="cls-33" d="M120.44,39.89h.78v7.82h-.78s0-7.82,0-7.82Z"/>
                        <path class="cls-36" d="M124.57,39.89h.78v3.27h3.98v-3.27h.78v7.82h-.78v-3.77h-3.98v3.77h-.78s0-7.82,0-7.82Z"/>
                        <path class="cls-31" d="M136.64,39.89l3.64,7.82h-.84l-1.23-2.57h-3.37l-1.22,2.57h-.88l3.69-7.82h.21ZM136.54,41.55l-1.33,2.83h2.67l-1.33-2.83Z"/>
                        <path class="cls-46" d="M142.93,39.89h1.56c.86,0,1.46.04,1.77.11.47.11.84.33,1.14.68s.43.78.43,1.28c0,.42-.1.8-.3,1.12s-.48.57-.85.73-.89.25-1.54.25l2.82,3.63h-.96l-2.82-3.63h-.44v3.63h-.78v-7.82h-.01ZM143.71,40.65v2.65h1.35c.52,0,.9-.04,1.16-.14.25-.1.44-.26.58-.47.14-.22.21-.46.21-.73s-.07-.51-.21-.72c-.14-.21-.33-.37-.56-.46-.23-.09-.62-.14-1.15-.14h-1.38Z"/>
                        <path class="cls-39" d="M154.28,39.89l3.64,7.82h-.84l-1.23-2.57h-3.37l-1.22,2.57h-.88l3.69-7.82h.21ZM154.18,41.55l-1.33,2.83h2.67l-1.33-2.83Z"/>
                      </g>
                      <g>
                        <path class="cls-45" d="M95.64,46.25l.67-.4c.47.86,1.01,1.28,1.62,1.28.26,0,.51-.06.74-.19.23-.12.41-.28.53-.49s.19-.42.19-.65c0-.26-.09-.52-.27-.77-.25-.35-.69-.77-1.33-1.26-.65-.49-1.06-.85-1.22-1.06-.27-.37-.42-.77-.42-1.2,0-.35.09-.65.25-.93s.4-.49.69-.67c.3-.16.62-.25.96-.25.37,0,.72.09,1.04.27.32.19.65.52,1.01,1.01l-.64.48c-.3-.4-.54-.64-.75-.77s-.43-.19-.68-.19c-.32,0-.57.1-.78.28-.2.19-.3.43-.3.7,0,.17.04.33.11.49s.2.33.38.52c.1.1.44.36,1.01.78.68.49,1.14.94,1.4,1.33.25.4.38.78.38,1.17,0,.57-.21,1.06-.64,1.48s-.95.63-1.57.63c-.47,0-.9-.12-1.28-.38s-.74-.68-1.06-1.27h-.02Z"/>
                        <path class="cls-44" d="M106.34,39.89l3.64,7.82h-.84l-1.23-2.57h-3.37l-1.22,2.57h-.88l3.69-7.82h.21ZM106.24,41.55l-1.33,2.83h2.67l-1.33-2.83Z"/>
                        <path class="cls-42" d="M112.62,39.89h.8v2.93l3.12-2.93h1.05l-3.75,3.51,4.05,4.31h-1.04l-3.42-3.64v3.64h-.8v-7.82h-.01Z"/>
                        <path class="cls-37" d="M120.44,39.89h.78v7.82h-.78s0-7.82,0-7.82Z"/>
                        <path class="cls-40" d="M124.57,39.89h.78v3.27h3.98v-3.27h.78v7.82h-.78v-3.77h-3.98v3.77h-.78s0-7.82,0-7.82Z"/>
                        <path class="cls-41" d="M136.64,39.89l3.64,7.82h-.84l-1.23-2.57h-3.37l-1.22,2.57h-.88l3.69-7.82h.21ZM136.54,41.55l-1.33,2.83h2.67l-1.33-2.83Z"/>
                        <path class="cls-43" d="M142.93,39.89h1.56c.86,0,1.46.04,1.77.11.47.11.84.33,1.14.68s.43.78.43,1.28c0,.42-.1.8-.3,1.12s-.48.57-.85.73-.89.25-1.54.25l2.82,3.63h-.96l-2.82-3.63h-.44v3.63h-.78v-7.82h-.01ZM143.71,40.65v2.65h1.35c.52,0,.9-.04,1.16-.14.25-.1.44-.26.58-.47.14-.22.21-.46.21-.73s-.07-.51-.21-.72c-.14-.21-.33-.37-.56-.46-.23-.09-.62-.14-1.15-.14h-1.38Z"/>
                        <path class="cls-38" d="M154.28,39.89l3.64,7.82h-.84l-1.23-2.57h-3.37l-1.22,2.57h-.88l3.69-7.82h.21ZM154.18,41.55l-1.33,2.83h2.67l-1.33-2.83Z"/>
                      </g>
                      <g>
                        <path class="cls-94" d="M95.64,46.25l.67-.4c.47.86,1.01,1.28,1.62,1.28.26,0,.51-.06.74-.19.23-.12.41-.28.53-.49s.19-.42.19-.65c0-.26-.09-.52-.27-.77-.25-.35-.69-.77-1.33-1.26-.65-.49-1.06-.85-1.22-1.06-.27-.37-.42-.77-.42-1.2,0-.35.09-.65.25-.93s.4-.49.69-.67c.3-.16.62-.25.96-.25.37,0,.72.09,1.04.27.32.19.65.52,1.01,1.01l-.64.48c-.3-.4-.54-.64-.75-.77s-.43-.19-.68-.19c-.32,0-.57.1-.78.28-.2.19-.3.43-.3.7,0,.17.04.33.11.49s.2.33.38.52c.1.1.44.36,1.01.78.68.49,1.14.94,1.4,1.33.25.4.38.78.38,1.17,0,.57-.21,1.06-.64,1.48s-.95.63-1.57.63c-.47,0-.9-.12-1.28-.38s-.74-.68-1.06-1.27h-.02Z"/>
                        <path class="cls-95" d="M106.34,39.89l3.64,7.82h-.84l-1.23-2.57h-3.37l-1.22,2.57h-.88l3.69-7.82h.21ZM106.24,41.55l-1.33,2.83h2.67l-1.33-2.83Z"/>
                        <path class="cls-96" d="M112.62,39.89h.8v2.93l3.12-2.93h1.05l-3.75,3.51,4.05,4.31h-1.04l-3.42-3.64v3.64h-.8v-7.82h-.01Z"/>
                        <path class="cls-97" d="M120.44,39.89h.78v7.82h-.78s0-7.82,0-7.82Z"/>
                        <path class="cls-88" d="M124.57,39.89h.78v3.27h3.98v-3.27h.78v7.82h-.78v-3.77h-3.98v3.77h-.78s0-7.82,0-7.82Z"/>
                        <path class="cls-89" d="M136.64,39.89l3.64,7.82h-.84l-1.23-2.57h-3.37l-1.22,2.57h-.88l3.69-7.82h.21ZM136.54,41.55l-1.33,2.83h2.67l-1.33-2.83Z"/>
                        <path class="cls-90" d="M142.93,39.89h1.56c.86,0,1.46.04,1.77.11.47.11.84.33,1.14.68s.43.78.43,1.28c0,.42-.1.8-.3,1.12s-.48.57-.85.73-.89.25-1.54.25l2.82,3.63h-.96l-2.82-3.63h-.44v3.63h-.78v-7.82h-.01ZM143.71,40.65v2.65h1.35c.52,0,.9-.04,1.16-.14.25-.1.44-.26.58-.47.14-.22.21-.46.21-.73s-.07-.51-.21-.72c-.14-.21-.33-.37-.56-.46-.23-.09-.62-.14-1.15-.14h-1.38Z"/>
                        <path class="cls-91" d="M154.28,39.89l3.64,7.82h-.84l-1.23-2.57h-3.37l-1.22,2.57h-.88l3.69-7.82h.21ZM154.18,41.55l-1.33,2.83h2.67l-1.33-2.83Z"/>
                      </g>
                    </g>
                  </g>
                </g>
                <g>
                  <path class="cls-92" d="M194.05,39.9l3.64,7.82h-.84l-1.23-2.57h-3.37l-1.22,2.57h-.88l3.69-7.82h.21ZM193.95,41.55l-1.33,2.83h2.67l-1.33-2.83Z"/>
                  <path class="cls-93" d="M199.73,39.89h.78v7.06h3.96v.75h-4.74v-7.82h0Z"/>
                  <path class="cls-15" d="M177.48,39.7c1.19,0,2.17.4,2.98,1.19s1.2,1.77,1.2,2.91-.4,2.11-1.2,2.91-1.77,1.2-2.91,1.2-2.14-.4-2.94-1.19c-.8-.79-1.2-1.75-1.2-2.88,0-.75.19-1.44.54-2.09.36-.64.85-1.15,1.48-1.51s1.31-.54,2.04-.54h.01ZM177.51,40.46c-.58,0-1.12.15-1.64.46s-.93.7-1.21,1.22c-.3.51-.43,1.07-.43,1.7,0,.93.32,1.72.96,2.36s1.42.96,2.32.96c.61,0,1.17-.15,1.68-.44s.91-.69,1.21-1.21c.28-.51.43-1.07.43-1.7s-.15-1.19-.43-1.68c-.28-.51-.69-.9-1.22-1.2s-1.09-.46-1.67-.46h0Z"/>
                  <path class="cls-16" d="M165.86,40.65v-.77h6.2v.77h-2.7v7.05h-.8v-7.05h-2.7.01Z"/>
                  <path class="cls-14" d="M182.74,40.65v-.77h6.2v.77h-2.7v7.05h-.8v-7.05h-2.7.01Z"/>
                  <path class="cls-17" d="M178.49,47.01s-.78-.57-.58-1.57c.14-.68.4-1.07.81-1.2-.51.32-.62.85-.67,1.1s.22.53.63.27.41-1,.43-1.26.16-.47.16-.47c0,0-.69,0-1.19.51s-.48.98-.48.98c0,0-.26-.47-.8-.52s-.93.16-.93.16c0,0,.3.19.4.52s.49.73,1,.43c.07-.05.07-.19.06-.21-.27-.56-.8-.69-.95-.72.35-.06.96.19,1.12.7.35,1.06-.54,1.33-.54,1.4,0,.2.99.41,1.52-.11h0Z"/>
                </g>
              </g>
            </g>
            <g>
              <g>
                <path class="cls-10" d="M80.46,12.65c.06,0,.11.05.11.11s-.02.11-.07.16c-3.06,3.1-4.4,6.64-4.4,10.68s1.33,7.57,4.37,10.66c.06.06.11.11.11.19s-.05.14-.11.14-.14-.02-.21-.06c-1.9-1.44-3.36-3.1-4.37-4.99-1.02-1.9-1.47-3.88-1.47-5.91s.46-4.01,1.47-5.91c1.02-1.88,2.47-3.53,4.35-4.96.06-.05.14-.06.21-.06v-.02Z"/>
                <path class="cls-10" d="M85.96,21.72c1.61.62,2.49,1.52,2.49,2.54,0,.63-.43,1.09-1.02,1.09-.46,0-.68-.27-.75-.81-.11-.98-.33-1.7-.73-2.28,0,3.85.05,9.95.05,11.09,0,.54-.48.81-1.25.81-.65,0-.98-.19-.98-.73,0-1.11.22-5.58.27-9.85-1.04,2.44-2.17,3.94-3.51,5.26-.09.09-.3-.09-.25-.19,1.63-2.85,2.83-6.24,3.4-9.47h-1.04c-.43,0-.86.05-1.44.14l-.25-.84c.68.14,1.17.19,1.7.19h1.25v-2.36c0-1.16-.02-2-.11-2.9,2.72.3,2.95.41,2.95.75,0,.25-.21.43-.77.65v3.85h.41c.48-1.02.75-1.2.9-1.2.21,0,.38.19,1,.86.21.22.38.48.38.63s-.07.22-.3.22h-2.41v2.56h-.01ZM95.3,23.67c.62,1.33,1.49,2.54,2.65,3.58,1.2,1.09,2.68,1.98,4.33,2.58.11.05.11.22,0,.25-.75.19-1.16.59-1.61,1.52-.09.19-.16.25-.27.25s-.38-.14-.7-.36c-1.02-.79-1.88-1.74-2.63-2.82-.77-1.2-1.49-2.63-2.09-4.58.14,6.96.21,8.33.21,9.2,0,.63-.43.9-1.31.9-.68,0-.98-.22-.98-.77,0-.79.16-4.12.21-7.05-1.65,2.52-3.9,4.37-6.57,5.59-.11.05-.22-.19-.14-.25,2.56-2.01,4.4-4.58,5.89-8.06h-1.7c-.54,0-1.06.05-1.79.14l-.25-.84c.81.14,1.41.19,2.01.19h2.44v-4.21h-2.42c-.75,1.3-1.63,2.28-2.74,3.24-.09.07-.27-.09-.21-.19.79-1.33,1.49-3.12,1.88-4.77.25-.93.38-1.79.38-2.49,2.2.62,2.72.81,2.72,1.16,0,.22-.21.32-.77.41-.32.79-.63,1.47-.98,2.11h2.14v-2.09c0-1.41-.05-2.27-.16-3.06,2.77.25,2.95.3,2.95.65,0,.27-.22.43-.73.62v3.88h2.2c1-1.25,1.27-1.43,1.43-1.43.21,0,.43.19,1.41,1,.43.36.62.57.62.73s-.07.22-.3.22h-5.35v4.21h2.88c1.04-1.41,1.31-1.58,1.47-1.58.21,0,.43.19,1.47,1.11.46.41.63.62.63.77s-.06.22-.3.22h-5.94v.02Z"/>
                <path class="cls-10" d="M107.05,17.69c1.02,1.9,1.47,3.88,1.47,5.91s-.46,4.01-1.47,5.91c-1.02,1.88-2.47,3.53-4.37,4.99-.06.05-.14.06-.21.06s-.11-.06-.11-.14.05-.11.11-.19c3.04-3.09,4.37-6.62,4.37-10.66s-1.33-7.57-4.4-10.68c-.05-.05-.06-.09-.06-.16s.05-.11.11-.11.14.02.21.06c1.88,1.43,3.33,3.09,4.35,4.96v.02Z"/>
              </g>
              <g>
                <path class="cls-10" d="M120.52,22.51c.02,4.17.06,7,.06,8.05,0,.54-.3.75-.95.75-.57,0-.73-.21-.73-.73v-.77h-3.83v1.25c0,.62-.35.84-.98.84-.59,0-.79-.19-.79-.59,0-.7.11-3.06.11-9.16,0-2.68-.02-3.74-.11-4.94,2.06.3,2.33.36,2.33.62,0,.19-.19.32-.57.46v11.01h1.02v-13.26c-.02-.98-.05-1.72-.14-2.33,2.25.22,2.47.46,2.47.65,0,.22-.21.41-.63.59v14.35h1.11v-9.85c0-1.06-.02-1.65-.06-2.22,2.01.27,2.33.35,2.33.62,0,.21-.19.35-.65.54v3.63h10.5c.95-1.06,1.22-1.25,1.38-1.25.21,0,.43.19,1.25.89.35.3.52.49.52.65s-.07.22-.3.22h-1.88v6.05c0,1.72.02,2.85.02,3.65,0,.57-.16,1.06-.59,1.41-.54.43-1.17.57-1.72.57-.43,0-.59-.05-.68-.57-.14-.73-.63-1.04-2.25-1.47-.11-.02-.11-.32,0-.32,1.09.06,2.06.11,2.77.11.38,0,.48-.14.48-.41v-9.03h-9.5l-.02-.02ZM127.06,16.62c-.09.32-.21.63-.36.95,3.83.48,4.83,1.25,4.83,2.47,0,.59-.38,1.09-.89,1.09-.32,0-.54-.14-.86-.54-.95-1.2-1.88-1.95-3.26-2.65-.93,1.7-2.65,2.68-5.46,3.26-.11.02-.19-.22-.09-.27,2.44-1.27,3.69-2.49,4.15-4.31h-2.09c-.49,0-1,.05-1.68.14l-.25-.84c.75.14,1.3.19,1.85.19h2.27c.06-.46.11-.95.11-1.49,0-.35,0-.63-.05-1.27,2.74.36,2.82.36,2.82.73,0,.21-.14.32-.7.57-.05.52-.11,1.02-.21,1.47h2.9c.93-1.16,1.2-1.33,1.36-1.33.21,0,.43.19,1.3.93.36.35.54.54.54.7s-.06.22-.3.22h-5.94ZM123.93,29.19v.89c0,.68-.27.95-1.06.95-.63,0-.79-.27-.79-.73,0-.52.05-1.09.05-3.17,0-1.14-.02-2.27-.11-3.42.95.43,1.11.49,2.04,1h2.27c.62-.7.77-.84.95-.84.22,0,.46.14,1.11.68.27.22.41.36.41.54s-.07.27-.52.57v.65c0,1.77.02,2.95.02,3.33,0,.7-.32.93-1.06.93-.62,0-.79-.22-.79-.77v-.62h-2.52ZM126.43,25.23h-2.49v3.44h2.49v-3.44Z"/>
                <path class="cls-10" d="M139.23,15.33v1c0,4.78-.21,8.09-.79,10.66-.65,2.77-1.79,4.64-3.61,6.53-.06.09-.32-.14-.27-.22,1.04-1.88,1.7-3.63,2.06-6.03.36-2.17.48-4.91.48-8.79,0-2.77-.02-3.63-.11-4.85,1.2.54,1.38.63,2.58,1.22h12.35c1.11-1.22,1.3-1.36,1.47-1.36.22,0,.43.14,1.57.95.52.38.65.52.65.7,0,.16-.09.22-.35.22h-6.96c-.63,1.14-1.36,2.17-2.26,3.11h4.99c.81-.89,1-1.02,1.17-1.02.22,0,.41.14,1.2.81.36.32.49.48.49.65,0,.21-.06.3-.65.68v.95c0,2.49.09,4.2.09,4.75,0,.63-.38.95-1.22.95-.73,0-.95-.21-.95-.86h-2.85v2.41c0,3.09.05,3.63.05,4.04,0,.95-.22,1.36-.9,1.74-.41.27-1.14.46-1.73.46-.41,0-.46-.09-.59-.89-.19-.68-.81-1.11-2.33-1.47-.11-.02-.11-.3,0-.3,1.22.09,2.15.16,3.06.16.25,0,.32-.09.32-.35v-5.8h-3.01c-.02.62-.38.89-1.2.89-.73,0-.95-.16-.95-.84,0-.54.09-1.09.09-3.31,0-1.59-.02-3.17-.09-4.78,1.06.41,1.25.49,2.38,1.11h2.01c.22-1.02.35-2.09.38-3.12h-6.57,0ZM143.47,28.84c-1.61,2.06-2.9,3.11-5.26,4.28-.09.05-.32-.16-.22-.22,1.17-1.06,2.31-2.54,3.06-3.99.35-.68.62-1.31.77-1.93,2.22.86,2.74,1.11,2.74,1.41,0,.27-.27.36-1.09.46h0ZM151.17,18.98h-8v2.54h8v-2.54ZM143.17,24.87h8v-2.83h-8v2.83ZM153.64,32.77c-.62,0-.68-.06-1.47-2.04-.48-1.14-1.16-2.11-2.33-3.17-.09-.07.05-.3.16-.25,3.52,1.49,4.83,2.63,4.83,4.12,0,.77-.49,1.33-1.17,1.33h-.01Z"/>
                <path class="cls-10" d="M159.67,22.87c.79-1.19,1.54-2.54,2.15-3.85.46-.93.79-1.82,1.02-2.56,1.77.81,2.47,1.27,2.47,1.57,0,.21-.25.36-.89.35-1.36,1.84-2.38,2.98-4.01,4.51,1.14-.02,2.25-.05,3.36-.11-.14-.63-.38-1.11-.81-1.82-.06-.09.09-.19.19-.14,1.74.95,2.52,1.84,2.52,2.95,0,.65-.41,1.16-.93,1.16s-.73-.32-.86-1.49v-.05c-.41.14-.84.27-1.25.38v3.17c0,2.42.07,5.45.07,6.43,0,.62-.41.89-1.19.89-.65,0-.93-.21-.93-.73,0-.47.14-1.95.14-4.89v-1.54c-.09.09-.3.16-.59.22-.75,2.22-1.49,3.69-2.68,5.17-.06.09-.27-.02-.25-.14.43-1.41.75-2.83.95-4.2.11-.81.19-1.61.19-2.36,1.58.47,2.17.68,2.38.89v-2.44c-.54.11-1.2.25-2,.43-.14.46-.27.63-.48.63-.32,0-.46-.43-.84-2.47.54.05.79.05,1.17.05h1.09v-.02ZM160.53,14.65c.14-.52.22-1,.3-1.41,2.04.73,2.69,1.06,2.69,1.33s-.27.38-.9.38c-1.33,1.65-1.72,2.14-2.56,2.93.63.43.93.98.93,1.65,0,.73-.43,1.25-1,1.25s-.65-.09-1.02-1.36c-.27-.98-.59-1.54-1.33-2.28-.09-.09.02-.22.14-.21.77.21,1.38.43,1.85.68.36-.9.68-2,.9-2.96h.01ZM164.43,29.06c-.54,0-.77-.21-.86-1.3-.07-.89-.3-1.77-.62-2.27-.06-.09.06-.16.16-.11,1.57.84,2.26,1.59,2.26,2.56,0,.63-.36,1.11-.95,1.11h.01ZM166.6,29.4c0,1.52-.57,2.79-1.79,2.79-.59,0-1.06-.46-1.06-1.06,0-.49.25-.81.89-1.09,1.04-.43,1.38-1,1.49-2.33,0-.11.22-.14.25-.02.16.57.22,1.17.22,1.72ZM169.84,15.28c-1.36,2.79-2.85,4.53-5.04,5.85-.09.06-.27-.07-.21-.16,1.36-1.68,2.27-3.38,2.85-5.35.19-.65.35-1.36.47-2.09,2.38.7,2.82.89,2.82,1.22,0,.27-.25.43-.9.52h.01ZM168.07,22.63c.46-1.16.84-2.2,1.09-3.15.22-.81.38-1.57.46-2.26,2.28.62,2.9.86,2.9,1.17,0,.25-.06.3-.9.49-.86,1.43-1.79,2.68-2.77,3.74,1.59,0,3.17-.09,4.74-.21-.32-.79-.73-1.43-1.3-2.09-.06-.09,0-.25.11-.21,2.47.89,3.67,2,3.67,3.33,0,.73-.47,1.31-1.06,1.31-.49,0-.79-.35-1-1.02-.06-.25-.14-.49-.21-.73-1.74.57-3.58.98-6.48,1.41-.09.52-.27.75-.52.75s-.36-.36-.86-2.65c.65.06,1,.09,1.79.09h.35v.02ZM169.64,31.03c0,.63.25.75,1.7.75.81,0,1.31-.06,1.63-.25.38-.22.62-.62,1.14-2.44.02-.11.25-.09.25.02.02.54.02,1.22.02,1.93,0,.3.06.36.3.46.49.21.73.35.73.84s-.35.84-1.14,1.06c-.7.19-1.74.27-3.06.27-2.85,0-3.65-.41-3.65-1.65,0-.73.09-1.41.09-4.45,0-.46-.02-.9-.09-1.38,2.63.27,2.79.3,2.79.63,0,.21-.14.3-.7.54v3.67ZM172.09,28.32c-.49,0-.7-.21-.89-.86-.27-1-.65-1.65-1.44-2.41-.09-.06-.02-.21.09-.19,2.11.3,3.36,1.16,3.36,2.25,0,.68-.49,1.2-1.11,1.2h0ZM177.26,20.79c-.06.25-.14.35-.3.35-.14,0-.36-.14-.63-.36-.62-.49-1.47-1.43-2-2.17-.77-1.2-1.27-2.36-1.65-3.99-.09-.36-.11-.41-.32-.59-.07-.09-.09-.14-.09-.19,0-.16.46-.32.79-.32.11,0,.21.06.21.19,0,.07-.11.35-.11.43,0,.14.05.35.16.57.43.9,1.19,1.73,1.98,2.31.84.65,1.88,1.2,3.17,1.7.11.05.11.25,0,.3-.68.3-.89.62-1.2,1.79h-.01ZM177.08,31.92c-.63,0-.86-.3-1.04-1.43-.14-1.09-.49-2-1.19-2.98-.06-.09.07-.21.19-.16,2.28,1,3.28,2,3.28,3.24,0,.73-.57,1.31-1.25,1.31v.02Z"/>
                <path class="cls-10" d="M179,24.49c-.11.05-.25-.16-.16-.22,2.99-1.9,5.64-4.61,7.41-7.48.7-1.19,1.27-2.36,1.65-3.53,3.2.86,3.22.89,3.22,1.16,0,.22-.19.32-1.02.54,1.44,2.06,3.06,3.63,4.89,4.75,1.68,1.02,3.53,1.68,5.69,2.04.11.02.11.27,0,.27-.9.09-1.36.54-1.73,1.85-.11.32-.21.43-.38.43-.16,0-.46-.14-.84-.35-.95-.49-2.42-1.52-3.37-2.38-1.88-1.7-3.12-3.37-4.53-6.19-2.28,4.12-6.16,7.37-10.83,9.09h0ZM184.84,32.26v.79c0,.62-.41.89-1.38.89-.63,0-.9-.22-.9-.79,0-.84.07-1.68.07-5.04,0-1.31-.02-2.63-.07-3.94,1.22.59,1.41.68,2.52,1.3h8.59c.86-1.02,1.04-1.16,1.22-1.16.22,0,.41.14,1.38.95.46.38.59.54.59.73,0,.27-.14.41-.75.75v1.04c0,2.74.06,4.64.06,5.26,0,.57-.49.9-1.41.9-.65,0-.93-.25-.93-.79v-.89h-9ZM193.84,25.98h-9v5.75h9v-5.75ZM190.26,21.67c.95-1.22,1.22-1.41,1.38-1.41.21,0,.46.19,1.44.98.46.36.63.57.63.73s-.06.22-.3.22h-6.8c-.38,0-.79.05-1.31.14l-.25-.84c.63.14,1.14.19,1.61.19h3.59Z"/>
                <path class="cls-10" d="M217.44,19.39c0,.32-.16.59-.59.77-.36.16-.48.41-.7.77-1.54,2.42-3.2,4.77-5.24,6.8-2.06,2.14-4.51,3.9-7.35,4.94-.19.07-.35.14-.52.14-.14,0-.22-.05-.22-.21s.11-.22.38-.41c2.9-1.88,5.04-3.88,6.62-5.8,1.65-2.01,3.28-4.24,4.47-6.84.05-.11.06-.19.06-.22s-.05-.09-.11-.09c-.54.06-1.3.25-2.28.43-.63.11-.9.22-1.22.22s-.79-.19-1.25-.38c-.86,1.14-1.77,2.15-2.69,3.04-1.04.98-2.14,1.79-3.28,2.52-.41.25-.59.35-.73.35-.21,0-.27-.09-.27-.25,0-.19.32-.41.86-.95.86-.89,1.85-2,2.82-3.28.63-.84,1.25-1.74,1.84-2.69.38-.63.75-1.36.75-1.74s-.38-.65-.81-.89c-.21-.11-.27-.19-.27-.27,0-.11.3-.36.75-.36.36,0,1.2.19,2.22.81.7.43.84.73.84,1.06,0,.25-.25.54-.49.7-.21.14-.36.35-.93,1.14.06.02.22.02.35.02.46-.02,1-.11,1.77-.25.93-.16,1.52-.3,1.82-.36.19-.05.32-.11.48-.27.11-.11.35-.32.59-.32.54,0,1.04.27,1.84,1,.35.3.57.65.57.9l-.06-.02Z"/>
                <path class="cls-10" d="M230.13,15.54c-.38-.25-.73-.35-1.11-.43-.21-.05-.25-.07-.25-.16,0-.14.19-.3.36-.43.21-.14.43-.21.68-.21.38,0,1.2.14,1.95.47s1.27.65,1.27,1.2c0,.21-.07.46-.27.65-.16.16-.25.46-.25,1.25,0,3.53-.22,6.41-.57,7.79-.41,1.88-1.41,3.31-2.26,4.15-1.9,1.88-4.24,2.79-6.78,3.33-.22.05-.3.06-.43.06-.21,0-.3-.06-.3-.21,0-.11.09-.19.32-.27,3.04-1.06,5.4-2.79,6.7-5.24.65-1.22,1.09-2.88,1.22-5.01.06-.98.09-2.52.09-5.56,0-.86-.05-1.2-.38-1.43v.05ZM224.03,17.17c-.11-.3-.43-.54-1.11-.86-.19-.09-.25-.11-.25-.22,0-.07.09-.19.25-.25.27-.14.52-.19.73-.19.3,0,.93.19,1.7.62.75.41,1.19.9,1.19,1.31,0,.25-.14.48-.27.63-.06.09-.14.3-.16.77-.07,1.79-.11,3.69-.14,6.48,0,.68-.27.98-.79.98-.36,0-.73-.3-1.02-.81-.21-.38-.3-.84-.3-1.27,0-.21.05-.46.11-.65.05-.16.09-.49.11-1.04.05-.86.06-1.79.06-3.61,0-1.02.02-1.52-.11-1.88Z"/>
                <path class="cls-10" d="M255.32,24.66c-.7,0-2.25-.11-3.36-.11-1.79,0-5.69.09-8.48.35-1.09.09-1.93.22-2.25.43-.16.11-.35.19-.62.19-.59,0-1.11-.54-1.82-1.57-.35-.47-.43-.77-.43-1.22,0-.36.14-.54.27-.54.07,0,.19.09.3.21.84.81,1.25.86,1.9.86.62,0,1.04-.02,2.38-.11,2.82-.19,5.8-.32,8.03-.36.89-.02,1.47-.16,1.77-.32.22-.11.46-.19.63-.19.3,0,.65.07,1.02.22.86.36,1.44.7,1.44,1.27,0,.43-.3.9-.81.9h.02Z"/>
                <path class="cls-10" d="M258.93,17.96c0-.11.09-.19.22-.19.09,0,.21,0,.43.02.89.11,1.88.36,2.88.9,1.04.57,1.57,1.44,1.57,2.27,0,.77-.54,1.27-1.22,1.27-.43,0-.86-.22-1.11-.84-.19-.43-.46-.95-.95-1.63-.57-.75-1.11-1.27-1.65-1.59-.11-.06-.16-.14-.16-.22ZM262.24,28.24c2.09-1.22,4.31-2.74,6.27-4.45,2.09-1.86,3.79-3.65,5.32-5.53.11-.14.22-.21.3-.21.16,0,.22.09.22.21s-.05.22-.14.38c-1.31,2.31-2.68,4.24-4.72,6.35-1.95,2-3.85,3.65-6.05,5.3-.25.19-.48.41-.59.54-.21.27-.49.54-.9.54-.48,0-.77-.21-1.38-.86-.98-1.04-1.27-1.63-1.27-2.11s.16-.86.36-.86c.11,0,.19.09.36.3.49.52.81.84,1.04.84.27,0,.68-.19,1.16-.46l.02.02Z"/>
              </g>
            </g>
          </g>
        </g>
      </g>
    </g>
  </g>
</svg>