<?xml version="1.0" encoding="UTF-8"?>
<svg xmlns="http://www.w3.org/2000/svg" version="1.1" viewBox="0 0 435.91 49.83">
  <defs>
    <style>
      .cls-1 {
        fill: #003810;
      }

      .cls-2 {
        fill: #fff000;
      }

      .cls-3 {
        fill: #231815;
      }
    </style>
  </defs>
  <!-- Generator: Adobe Illustrator 28.7.10, SVG Export Plug-In . SVG Version: 1.2.0 Build 236)  -->
  <g>
    <g id="_レイヤー_1" data-name="レイヤー_1">
      <rect class="cls-2" x="28.14" y="30.41" width="377.84" height="17.3" rx="8.65" ry="8.65"/>
      <g>
        <g>
          <path class="cls-1" d="M48.42,38.46c-1.64-.46-4.91-1.41-6.91-1.41-.32,0-.5,0-.82.14-.73.91-1.82,2.41-2.59,3.27-.45.5-1.04.73-1.59.73-1.41,0-2.14-1.59-2.14-2.68,0-.86.23-1.05,2.14-2.23,1.82-1.14,3.68-2.68,5.32-4.23v-7.68l-3.36.14c-.41,0-2.14.73-2.5.73-.54,0-1.14-.36-1.14-1.09,0-.91.59-2.18,1.82-2.18.27,0,1.36.32,1.59.32l3.27-.14c1.32-1.41,2.45-1.5,2.86-1.5.91,0,2,.55,2,1.59,0,.36-.41,1.91-.41,2.23,0,.68.09,5.45,0,6.22-.09,1.23-.32,1.36-2.04,2.27-.73.36-1.45,1.32-2.23,2.36.86,0,1.77.05,3.82.36,2.14.36,11.59,2.04,13.49,2.32,4.41.68,7.81,1.14,11.4,1.14,2.86,0,5.04-.41,6.09-.64.23-.05.86-.18,1.27-.18.23,0,.41.09.41.41,0,.5-3.54,3.41-4.18,3.86-1.27.95-2.23,1.18-3.63,1.18-3.41,0-6.72-.91-10.27-1.95l-11.68-3.36ZM44.74,12.97c-.86,0-7.27-1.59-7.27-3.86,0-1.14,1-2.23,2.23-2.23,2.82,0,5.86,4.54,5.86,5.45,0,.59-.64.64-.82.64ZM50.87,30.14c-.45,0-2.41.59-2.82.59-.68,0-1.18-.32-1.18-.95,0-.73.45-1.68,1.68-1.68.27,0,1.45.23,1.73.23h4.09c0-.59-.05-3.27-.05-3.82h-1.91c-.46,0-2.41.59-2.82.59-.64,0-1.23-.23-1.23-.95,0-.82.54-1.73,1.73-1.73.27,0,1.45.27,1.73.27h2.45c0-1.09,0-1.41-.36-1.73-.09-.09-.36-.32-.36-.41,0-.91,2.13-2.13,3.18-2.13.45,0,1.5,0,1.5,1.14,0,.5-.23,2.63-.23,3.13h2.95c0-.36,0-1-.05-1.27-.05-.18-.68-.73-.68-.91,0-.82,2-2.27,3.04-2.27.09,0,1.59,0,1.59,1.27l-.14,1.32c-.04.32-.09.77-.09,1.82h2.64c.68-.82,1.32-1.45,2.27-1.45,1.09,0,2.63.95,2.63,2.18,0,1-1,1.13-1.73,1.13h-5.91v3.77h5.09c.68-.82,1.27-1.5,2.18-1.5,1.13,0,2.95,1.05,2.95,2.23,0,1-.91,1.14-1.95,1.14h-21.94ZM48.51,11.56c-.05-.09-.36-.5-.36-.59,0-.73,1.73-1.73,2.36-1.73.41,0,1.27.32,1.32.96h3.09v-3.14h-3.77c-.45,0-2.36.64-2.77.64-.27,0-1.14-.23-1.14-.91,0-.82.64-1.77,1.73-1.77.23,0,1.27.23,1.5.23h4.5c.54-.95,1.36-1.14,1.77-1.14.73,0,2.04.64,2.04,1.55,0,.18-.23,1-.23,1.18,0,.32.04,1.73.04,2v2.86c0,.91-1.64,1.5-2.5,1.5-1.18,0-1.23-.86-1.23-1.27h-3.27c0,.36-.05,1.91-.05,2.23,0,1.09.59,1.23,1.73,1.23,1.41,0,4.41-.09,6.18-1.41.14-.09.59-.41.68-.41.23,0,.32.18.32.36,0,.32-.36,2.82-1.36,3.54-.91.68-4.5.68-5.04.68-1.91,0-5.54-.18-5.54-3.41v-3.18ZM51.01,36.01c-1.23,0-2.5-.68-2.5-1.82,0-1.32,1.45-1.45,2.68-1.45,1.55,0,2.86-.05,5-1.23.27-.18,1.36-.77,1.59-.77.36,0,.68.18.68.5,0,1.27-3.45,4.77-7.45,4.77ZM61.05,24.51h-3.13v3.82h3.13v-3.82ZM61.23,11.56c-.14-.09-.41-.32-.41-.59,0-.73,1.73-1.73,2.36-1.73.41,0,1.27.27,1.32.96h3.09v-3.14h-4.13c-.45,0-2.32.64-2.73.64-.27,0-1.14-.23-1.14-.91,0-.77.55-1.77,1.73-1.77.23,0,1.27.23,1.5.23h4.77c.41-.86,1.5-1.18,1.91-1.18.68,0,2.18.64,2.18,1.59,0,.18-.32,1-.32,1.18,0,.32.05,1.73.05,2v2.86c0,.86-1.73,1.5-2.68,1.5s-1.23-.77-1.23-1.27h-3.23c0,.36-.05,1.91-.05,2.23,0,1,.73,1.23,2,1.23,4.5,0,6.77-1.36,7.86-2.04.09-.05.18-.14.36-.14s.32.18.32.36c0,.27-.82,2.5-1,2.91-.36.73-.86,1.77-4.59,1.77-7.45,0-7.95-2.09-7.95-3.5v-3.18ZM61.23,31.87c-.36-.27-.59-.41-.59-.64,0-.27.32-.27.45-.27,3,0,10.31,2.45,10.31,5.18,0,1.32-1.54,1.73-2.18,1.73-1.27,0-1.55-.36-4.5-3.23-.95-.95-1.63-1.41-3.5-2.77Z"/>
          <path class="cls-1" d="M89.47,16.38c-1.32,3.68-2.91,9.63-2.91,13.54,0,.73.05,3.95.86,3.95.27,0,.45-.09.59-.36.27-.41,1.23-2.82,1.77-2.82.36,0,.64.18.64.59s-.41,2.32-.46,2.77c-.04.41-.23,1.64-.23,2.91,0,.27.09,1.64.09,1.95,0,1.13-1.18,1.77-2,1.77-3.32,0-4.13-7.45-4.13-10.99,0-4.72.77-9.27,1.73-14.22.64-3.23.68-3.31.68-4.31,0-.27-.32-1.59-.32-1.91,0-.59.41-1,.91-1,1.73,0,3.95,2.5,3.95,4.18,0,.59-.14.91-1.18,3.95ZM114.96,38.32c0,1.23-.77,1.95-1.82,1.95-.95,0-1.64-.73-2.32-1.59-1-1.23-2.36-2.5-3.45-3.13-.41,1.05-1.5,3.73-6.54,3.73-2.91,0-6.45-1.68-6.45-3.95,0-2.41,2.86-4.09,7.09-4.09,1.45,0,2.23.09,2.86.18,0-1.45.05-8.63.05-10.27-2.41.41-4.18.41-4.68.41-.95,0-3.68,0-5.13-2-.32-.41-.82-1.59-.82-2,0-.18.27-.27.41-.27.09,0,1.91.91,2.27,1.04.82.27,1.77.27,3.09.27,3.18,0,4.18-.27,4.77-.46v-1.41c0-.41-.05-3.31-.18-4.45-.05-.5-.64-3-.64-3.59,0-1.09.77-1.41,1.54-1.41,1.32,0,3.36.91,3.36,2.82,0,.14,0,.45-.09.73-.36,1.09-.77,4.86-.82,6.27,2.45-1.36,2.73-1.5,3.32-1.5,1,0,2.27.45,2.27,1.68,0,.82-.32,1.77-5.68,3.31.04,3.5.09,3.95.5,8.13.18,1.82.23,2.59.18,3.5,5.5,2.27,6.91,4.5,6.91,6.09ZM101.05,33.1c-1.64,0-4.32.64-4.32,2.23,0,1.23,2.09,1.54,2.86,1.54,1.45,0,3.82-.91,4.45-3-.91-.64-1.95-.77-3-.77ZM109.5,6.84c0-.36.5-.46.86-.46,2.14,0,5.91,1.5,5.91,3.82,0,1-.86,1.77-1.73,1.77-.45,0-1.14-.14-1.82-1.36-.95-1.68-1.5-2.45-2.91-3.41-.04-.05-.32-.32-.32-.36ZM113.96,4.43c0-.41.82-.41,1.04-.41,2.45,0,5.86,1.5,5.86,3.63,0,.86-.73,1.77-1.82,1.77-1,0-1.32-.5-1.82-1.36-.32-.54-1.32-2.18-2.91-3.27-.05-.05-.36-.32-.36-.36Z"/>
          <path class="cls-1" d="M148.87,30.96c0,2.77,1.18,3.54,2.95,3.54,1.91,0,4-.64,5.72-1.64.18-.14,2.18-1.27,2.23-1.27.18,0,.36.23.36.41,0,.46-3.45,5.59-9.18,5.59-3.77,0-6.13-2.45-6.13-6.41,0-2.27.14-3.04,1.55-9.68.36-1.82.73-3.45.73-5.14,0-1.41-.27-2.45-1.95-2.45-2.5,0-7.54,3-10.9,8.13-.05.45-.05,4.5-.05,5.54,0,3.04.05,5.04.59,8,.18,1.09.46,2.45.46,3.04,0,1.04-.86,2.13-1.86,2.13-1.18,0-2.09-1.32-2.41-2.41-.18-.54-.14-.73-.14-2.23,0-1.73-.18-2.36-1.68-8.13-1.59,2.86-2.59,5.04-2.63,5.14-.55,1.23-1,2.23-2.27,2.23s-1.55-1.18-1.55-2.59c0-1.05.18-1.18,1.5-2.5.68-.73,1.68-1.77,3.82-4.77-1.18-2.32-2.04-3.82-3.32-5.27-.59-.23-1.18-.82-1.18-1.45,0-1.54,3-3.23,6.09-3.23,1.32,0,1.64.09,2,.18-.05-1.23-.23-7.31-.23-8.68,0-.41,0-1.54,1.59-1.54,1.23,0,2.77,1.27,2.77,2.5,0,.23-.23,1.5-.27,1.82-.09.54-.45,4.31-.64,7.27.05.09.59.77.45,1.14,3.59-4.27,8.13-6.54,11.13-6.54s5.13,1.77,5.13,4.82c0,1.09-.23,2.36-.5,3.45-.14.5-.86,3.18-1,3.77-.64,2.82-1.18,5.04-1.18,7.22ZM131.79,19.1c0-.95-1.68-1.27-2.45-1.27-.95,0-2.27.5-2.27,1.27,0,.32.23.77,2.14,5,2.32-3.14,2.59-4.23,2.59-5ZM132.06,23.38c-.23.45-1.59,2.64-1.82,3.13.73,2.32,1.18,4.13,1.68,6.18.14-4.63.14-5.13.14-9.31Z"/>
          <path class="cls-1" d="M183.43,11.56c0-.14-.09-.32-.32-.32-.95,0-2.54.82-4.72,2.09-1.45.82-2.64,1.5-3.32,1.5-2.36,0-3.54-2.64-3.54-3.32,0-.41.32-.59.73-.59s2.32.55,2.77.55c1.55,0,6.41-1.45,7.81-2.41,1.91-1.27,2-1.32,2.77-1.32,1.27,0,3.5.91,3.5,2.73,0,.73-.23,1-2.36,3.5-1.23,1.41-8.4,9.72-8.4,10.4,0,.14.14.14.23.14.18,0,.27-.05.5-.14,2.73-1.18,4.32-1.86,7.22-1.86,4.5,0,8.13,2.64,8.13,7.22,0,6.27-5.77,9.77-11.18,9.77-2.77,0-7.22-1.09-7.22-4.41,0-3.09,3.82-4.18,5.86-4.18s4.91,1.05,4.91,2.95c0,1.55-2.09,2.23-3.41,2.23-1,0-1.41-.23-1.41-.59,0-.32.18-.45.32-.54.77-.5.86-.54.86-1.05,0-.95-1.27-1.41-2-1.41-.86,0-2.18.59-2.18,2.04s1.36,2.64,3.68,2.64c3.77,0,7.4-3.18,7.4-7.5,0-3.13-1.82-5.22-5.04-5.22-1.68,0-4.63.68-6.86,1.86-1.86.95-3.82,3.31-5.32,5.22-1.23,1.64-1.95,2.55-3.18,2.55-.41,0-1.82,0-1.82-2,0-.59.18-1.68.73-2.82,7.18-3.63,14.86-16.04,14.86-17.72Z"/>
          <path class="cls-1" d="M226.44,30.01c0,3.85-2.56,11.54-13.66,11.54-7.65,0-9.52-4.78-9.52-6.21,0-1.28,1.48-2.22,2.76-2.22,1.73,0,1.83.79,2.17,3.06.3,2.22,2.27,3.06,4.29,3.06,4.93,0,8.39-3.26,8.39-9.03,0-4.88-3.01-6.36-6.46-6.36-.54,0-3.21.64-3.85.64-1.33,0-1.63-.84-1.63-1.38,0-1.38,1.87-1.38,3.01-1.38,6.71,0,7.6-4.78,7.6-6.46,0-2.42-1.18-5.92-5.23-5.92-3.7,0-5.82,2.81-5.82,4.69,0,.15.1.89.1,1.09,0,.84-.99,1.53-1.92,1.53-1.08,0-2.76-.59-2.76-2.22,0-2.96,4.05-7.5,11.39-7.5,5.52,0,9.47,3.35,9.47,7.7,0,1.04-.2,5.77-6.66,7.69,2.02.25,8.34,1.04,8.34,7.69Z"/>
          <path class="cls-1" d="M235.71,26.01c-1.5,0-4.77-1.86-4.77-3.41,0-.18.14-.95,1.05-.95.04,0,1.68.09,2,.09,1.91,0,4-1.14,7.09-3.13,4.63-3,10.59-6.09,15.63-6.09,5.36,0,12.31,3.27,12.31,10.54,0,11.27-13.4,14.9-18.22,14.9-1.27,0-1.32-.46-1.32-.59,0-.23.5-.41,2.23-1.09,11.58-4.45,12.31-10.13,12.31-12.9,0-3.86-2.09-7.95-7.45-7.95-2.77,0-7.36.5-15.76,7.4-.36.36-2.27,2-2.77,2.32-.54.36-1.27.86-2.32.86Z"/>
          <path class="cls-1" d="M276.4,27.92c0-7.4,7.4-17.17,19.31-17.17,7.4,0,14.4,4.31,14.4,13.04,0,13.22-13.45,15.85-16.22,15.85-.68,0-.73-.23-.73-.41,0-.36.55-.5.82-.64,2.04-.91,2.95-1.32,3.86-1.91,3.59-2.27,7.54-6.22,7.54-12.9s-3.82-11.27-10.58-11.27c-2.36,0-4.54.46-7.4,2.64-3.68,2.82-6.95,7.72-6.95,12.99,0,.68.14,3.13.95,3.13,2.45,0,10.45-9.36,10.45-14.63,0-.27-.23-1.59-.23-1.91,0-.27.32-.59.91-.59,1.64,0,2.5,1.91,2.5,3.95,0,6.04-9.22,17.08-14.22,17.08-1.27,0-2.36-.86-2.5-2.04-.14-1.05-.18-1.18-.82-2.18-.59-.86-1.09-1.95-1.09-3.04Z"/>
          <path class="cls-1" d="M317.92,36.09c-1.09,0-2.32-.5-2.32-1.73,0-1.59,1.18-1.86,1.86-2,.68-.14,3.82-.68,4.86-.86,0-.18.05-1,.05-1.18,0-.41.09-8.27.09-9.09h-2c-.41,0-2.45.59-2.95.59-.41,0-.95-.27-.95-.91,0-.36.18-1.73,1.5-1.73.23,0,1.23.14,1.45.14h3c0-1.82-.05-8.04-.05-8.09,0-.18-.14-.95-.14-1.13h-2.32c-.41,0-2.27.59-2.73.59s-1.04-.32-1.04-.95c0-.59.41-1.82,1.64-1.82.23,0,1.5.14,1.77.14h7.95c.46-1,1.14-1.27,1.68-1.27,1.05,0,2.41,1.05,2.41,2.27,0,.95-.91,1.05-1.59,1.05h-3.23c-.41.91-.41,7.72-.41,9.22h1.23c.18-.32.59-1.09,1.59-1.09s1.95.91,1.95,1.91-1.05,1.05-1.68,1.05h-3.13c0,1.18-.05,6.9-.05,8.18v1.45c2.27-.64,3.32-.91,5.04-1.5.45-.18.91-.36,1.09-.36.23,0,.45.18.45.36,0,1.5-11.54,6.77-15.04,6.77ZM354.35,40.73c-3.09,0-18.26-.05-21.72-.05-.68,0-2.59,0-3.13.09-.36.05-2.14.64-2.54.64-.32,0-1.27-.18-1.27-.95,0-1.05.82-2.23,2.04-2.23.27,0,1.5.32,1.77.32h11.77v-6.18h-2.68c-.59,0-1.95,0-2.5.09-.32.09-1.95.73-2.32.73-.45,0-1.18-.41-1.18-1.04,0-.73.73-1.82,1.73-1.82.18,0,1.14.14,1.36.14h5.59v-5.82h-4.23c0,.54,0,1-.64,1.5-.59.41-1.5.82-2.09.82-.36,0-1.32-.23-1.32-1.36,0-1.41.27-11.18.27-13.17,0-.86,0-1.82-.18-2.36-.04-.18-.64-1-.64-1.23,0-1.05,1.86-2.77,3.04-2.77.23,0,1.36,0,1.63,1.14h12.45c.77-1.05,1.59-1.32,2.23-1.32,1.14,0,2.54.86,2.54,2.23,0,.27-.09.59-.18.82-.32.77-.32,2.41-.32,2.95,0,1.91.23,11.99.23,12.13,0,2.59-2.91,2.59-2.95,2.59-1.68,0-1.73-.82-1.73-1.95h-4.13l.05,5.82h4.82c.36-.86,1.23-1.5,1.86-1.5,1,0,2.68,1.05,2.68,2.32,0,1-1.27,1.09-1.95,1.09h-7.4v6.18h7.95c.86-1.41,1.91-1.86,2.54-1.86,1.18,0,3.04,1.54,3.04,2.72,0,1.32-1.68,1.32-4.5,1.32ZM341.18,12.15c0-1.09,0-1.91-.04-2.86h-3.73c-.41,0-.46.36-.46.68v5.18h4.23v-3ZM341.18,17.06h-4.18v5.63h4.23l-.05-5.63ZM349.63,9.57l-.09-.27h-4.32v5.86h4.41v-5.59ZM349.54,17.06h-4.32c0,.82.05,4.73.05,5.63h4.27v-5.63Z"/>
          <path class="cls-1" d="M392.06,15.11c.5-1.09,1.41-1.73,2.59-1.73,1.45,0,2.68,1.09,2.68,2.36,0,.09-.23.95-.27,1.05-.18.64-.23,1.45-.23,2.18,0,3.77.04,7.95.09,11.68.05,1.32.41,7.68.41,9.13,0,2.23-2.45,2.73-3.41,2.73-1.73,0-1.73-.91-1.73-2.5h-22.4c-.18,2.36-1.91,2.95-2.91,2.95-1.86,0-1.86-1.09-1.86-1.82,0-.36.18-4.41.23-5.27.09-3.41.27-7.54.27-11.81v-5.5c0-.36-.14-.64-.36-.86-.55-.41-.68-.54-.68-.82,0-1.32,2.04-3.18,3.54-3.18.09,0,1.64,0,2.09,1.41h8.63v-3.68c0-1.59-.09-3.77-.32-4.32-.09-.27-1.05-1.41-1.05-1.73,0-1.23,2.54-3.09,4.09-3.09,2.14,0,2.14,1.73,2.14,2.36,0,.23-.05.59-.05.64-.18,2.72-.32,3.45-.5,9.81h8.99ZM378.75,28.05h-9.04v1.68c0,1.14.04,6.81.04,8.09h8.81l.18-9.77ZM378.75,25.87v-8.59h-8.45c-.09,0-.32.04-.36.18,0,.05-.18,7.68-.18,8.4h9ZM392.29,25.87v-8.59h-9.27l-.09,8.59h9.36ZM392.24,37.82v-9.77h-9.27l.09,9.77h9.18Z"/>
        </g>
        <g>
          <path class="cls-3" d="M420.72,18.65c-1.57,5.42-4.46,15.72-5.97,21.31-1.58,5.87-1.65,6.07-2.26,5.89s-.37-1.17.06-3.08c1.16-5.24,3.11-14.24,4.9-23.59.06-.36,1.17-6.14,1.31-6.7.85-3.52,2.13-4.34,2.88-4.11.93.28,1.25,2.19.57,5.01-.24.99-1.03,3.69-1.49,5.29Z"/>
          <path class="cls-3" d="M423.52,26.74c-1.42,3.33-4.04,9.68-5.41,13.13-1.44,3.63-1.5,3.75-1.99,3.53s-.27-.83.14-2.02c1.09-3.27,2.91-8.91,4.62-14.81.06-.23,1.12-3.87,1.24-4.22.79-2.19,1.83-2.53,2.44-2.26.74.33.94,1.64.32,3.39-.22.61-.93,2.28-1.35,3.26Z"/>
        </g>
        <g>
          <path class="cls-3" d="M15.02,18.65c1.57,5.42,4.46,15.72,5.97,21.31,1.58,5.87,1.65,6.07,2.26,5.89s.37-1.17-.06-3.08c-1.16-5.24-3.11-14.24-4.9-23.59-.06-.36-1.17-6.14-1.31-6.7-.85-3.52-2.13-4.34-2.88-4.11-.93.28-1.25,2.19-.57,5.01.24.99,1.03,3.69,1.49,5.29Z"/>
          <path class="cls-3" d="M12.21,26.74c1.42,3.33,4.04,9.68,5.41,13.13,1.44,3.63,1.5,3.75,1.99,3.53s.27-.83-.14-2.02c-1.09-3.27-2.91-8.91-4.62-14.81-.06-.23-1.12-3.87-1.24-4.22-.79-2.19-1.83-2.53-2.44-2.26-.74.33-.94,1.64-.32,3.39.22.61.93,2.28,1.35,3.26Z"/>
        </g>
      </g>
    </g>
  </g>
</svg>